<svg width="412" height="166" viewBox="0 0 412 166" fill="none" xmlns="http://www.w3.org/2000/svg">
<g filter="url(#filter0_d)">
<rect x="22" y="18" width="368" height="122" rx="20" fill="white"/>
<rect x="22.5" y="18.5" width="367" height="121" rx="19.5" stroke="#00398E"/>
</g>
<path d="M130.237 54H132.61L133.674 50.7217H138.358L139.422 54H141.795L137.295 41.3174H134.737L130.237 54ZM135.994 43.5762H136.038L137.787 48.9727H134.245L135.994 43.5762ZM142.938 54H145.126V48.5947C145.126 47.25 145.926 46.3359 147.183 46.3359C148.431 46.3359 149.046 47.083 149.046 48.4102V54H151.234V47.9707C151.234 45.8086 150.065 44.4902 148.018 44.4902C146.603 44.4902 145.653 45.1406 145.17 46.1426H145.126V44.6836H142.938V54ZM157.114 54.1846C159.848 54.1846 161.623 52.3652 161.623 49.3418V49.3242C161.623 46.3184 159.821 44.4902 157.105 44.4902C154.398 44.4902 152.605 46.3359 152.605 49.3242V49.3418C152.605 52.3564 154.372 54.1846 157.114 54.1846ZM157.123 52.418C155.726 52.418 154.838 51.3018 154.838 49.3418V49.3242C154.838 47.3906 155.743 46.2656 157.105 46.2656C158.494 46.2656 159.391 47.3818 159.391 49.3242V49.3418C159.391 51.293 158.503 52.418 157.123 52.418ZM163.029 54H165.218V48.5947C165.218 47.25 166.018 46.3359 167.274 46.3359C168.522 46.3359 169.138 47.083 169.138 48.4102V54H171.326V47.9707C171.326 45.8086 170.157 44.4902 168.109 44.4902C166.694 44.4902 165.745 45.1406 165.262 46.1426H165.218V44.6836H163.029V54ZM174.297 57.0938C176.239 57.0938 177.329 56.3643 178.041 54.3164L181.39 44.6836H179.087L176.898 52.1367H176.837L174.657 44.6836H172.267L175.615 54.0088L175.483 54.3867C175.202 55.1689 174.736 55.4062 173.901 55.4062C173.594 55.4062 173.339 55.3623 173.172 55.3271V56.9971C173.436 57.041 173.875 57.0938 174.297 57.0938ZM182.4 54H184.589V48.2959C184.589 47.1621 185.327 46.3359 186.382 46.3359C187.401 46.3359 188.034 46.9863 188.034 48.0322V54H190.161V48.2432C190.161 47.1182 190.882 46.3359 191.937 46.3359C193.009 46.3359 193.606 46.9951 193.606 48.1465V54H195.795V47.6016C195.795 45.7383 194.591 44.4902 192.754 44.4902C191.409 44.4902 190.302 45.2109 189.854 46.3711H189.801C189.458 45.1758 188.518 44.4902 187.217 44.4902C185.986 44.4902 185.028 45.1582 184.633 46.1777H184.589V44.6836H182.4V54ZM201.675 54.1846C204.408 54.1846 206.184 52.3652 206.184 49.3418V49.3242C206.184 46.3184 204.382 44.4902 201.666 44.4902C198.959 44.4902 197.166 46.3359 197.166 49.3242V49.3418C197.166 52.3564 198.933 54.1846 201.675 54.1846ZM201.684 52.418C200.286 52.418 199.398 51.3018 199.398 49.3418V49.3242C199.398 47.3906 200.304 46.2656 201.666 46.2656C203.055 46.2656 203.951 47.3818 203.951 49.3242V49.3418C203.951 51.293 203.063 52.418 201.684 52.418ZM210.763 54.1846C212.169 54.1846 213.127 53.5342 213.61 52.541H213.654V54H215.843V44.6836H213.654V50.0801C213.654 51.4336 212.854 52.3389 211.598 52.3389C210.35 52.3389 209.734 51.5918 209.734 50.2734V44.6836H207.546V50.7041C207.546 52.8662 208.715 54.1846 210.763 54.1846ZM221.283 54.1846C223.568 54.1846 225.194 53.0068 225.194 51.249V51.2402C225.194 49.8867 224.447 49.1309 222.522 48.7002L220.967 48.3574C220 48.1377 219.64 47.7861 219.64 47.25V47.2412C219.64 46.5557 220.246 46.1074 221.213 46.1074C222.232 46.1074 222.83 46.6523 222.927 47.3994L222.936 47.4697H224.975L224.966 47.373C224.887 45.7646 223.533 44.4902 221.213 44.4902C218.963 44.4902 217.478 45.6416 217.478 47.3467V47.3555C217.478 48.7354 218.374 49.6055 220.158 50.001L221.705 50.3438C222.672 50.5635 222.997 50.8799 222.997 51.4424V51.4512C222.997 52.1367 222.355 52.5674 221.292 52.5674C220.185 52.5674 219.578 52.0928 219.411 51.293L219.394 51.2139H217.24L217.249 51.293C217.442 53.0244 218.84 54.1846 221.283 54.1846ZM230.415 54H235.047C238.844 54 241.076 51.6445 241.076 47.6279V47.6104C241.076 43.6025 238.826 41.3174 235.047 41.3174H230.415V54ZM232.683 52.084V43.2334H234.81C237.332 43.2334 238.765 44.7891 238.765 47.6191V47.6367C238.765 50.5283 237.358 52.084 234.81 52.084H232.683ZM245.831 54.1846C247.237 54.1846 248.195 53.5342 248.679 52.541H248.723V54H250.911V44.6836H248.723V50.0801C248.723 51.4336 247.923 52.3389 246.666 52.3389C245.418 52.3389 244.803 51.5918 244.803 50.2734V44.6836H242.614V50.7041C242.614 52.8662 243.783 54.1846 245.831 54.1846ZM256.826 54.1846C259.182 54.1846 260.755 52.708 260.922 50.7656L260.931 50.7041H258.865L258.848 50.7832C258.646 51.7588 257.942 52.418 256.835 52.418C255.455 52.418 254.559 51.293 254.559 49.3506V49.3418C254.559 47.4346 255.446 46.2656 256.826 46.2656C257.986 46.2656 258.654 46.9951 258.839 47.9004L258.856 47.9795H260.922L260.913 47.9092C260.781 46.0459 259.252 44.4902 256.8 44.4902C254.084 44.4902 252.326 46.3535 252.326 49.3242V49.333C252.326 52.3213 254.058 54.1846 256.826 54.1846ZM262.337 54H264.525V50.7656L265.264 49.9922L268.208 54H270.73L266.89 48.6914L270.581 44.6836H268.05L264.569 48.5508H264.525V41.3174H262.337V54Z" fill="black"/>
<path d="M160.238 78.1641C162.508 78.1641 163.868 76.2021 163.868 73.0713V73.0576C163.868 69.9268 162.508 67.9717 160.238 67.9717C157.969 67.9717 156.622 69.9268 156.622 73.0576V73.0713C156.622 76.2021 157.969 78.1641 160.238 78.1641ZM160.238 77.0908C158.734 77.0908 157.859 75.5459 157.859 73.0713V73.0576C157.859 70.583 158.734 69.0518 160.238 69.0518C161.742 69.0518 162.631 70.583 162.631 73.0576V73.0713C162.631 75.5459 161.742 77.0908 160.238 77.0908ZM165.721 78.0957C166.158 78.0957 166.5 77.7539 166.5 77.3164C166.5 76.8789 166.158 76.5371 165.721 76.5371C165.283 76.5371 164.941 76.8789 164.941 77.3164C164.941 77.7539 165.283 78.0957 165.721 78.0957ZM168.024 78H174.539V76.9062H169.713V76.8789L172.058 74.4727C173.869 72.6201 174.368 71.8066 174.368 70.7266V70.7129C174.368 69.168 173.062 67.9717 171.278 67.9717C169.439 67.9717 167.963 69.2363 167.963 70.9453V70.9863H169.152V70.9521C169.152 69.8926 170.068 69.0449 171.299 69.0449C172.372 69.0449 173.131 69.7695 173.138 70.7744V70.7881C173.138 71.6084 172.83 72.1416 171.497 73.5293L168.024 77.1523V78ZM178.798 78H179.987V73.543C179.987 72.5518 180.671 71.8066 181.614 71.8066C182.496 71.8066 183.07 72.374 183.07 73.2354V78H184.26V73.4814C184.26 72.5107 184.923 71.8066 185.866 71.8066C186.803 71.8066 187.343 72.3877 187.343 73.3652V78H188.532V73.0918C188.532 71.6768 187.623 70.7539 186.215 70.7539C185.217 70.7539 184.383 71.2666 183.986 72.1211H183.959C183.651 71.2529 182.934 70.7539 181.963 70.7539C181.047 70.7539 180.336 71.2256 180.015 71.9297H179.987V70.8906H178.798V78ZM190.72 69.6875C191.137 69.6875 191.465 69.3525 191.465 68.9424C191.465 68.5254 191.137 68.1973 190.72 68.1973C190.31 68.1973 189.975 68.5254 189.975 68.9424C189.975 69.3525 190.31 69.6875 190.72 69.6875ZM190.125 78H191.314V70.8906H190.125V78ZM192.996 78H194.186V68.1357H192.996V78ZM198.718 78.1367C200.27 78.1367 201.432 77.207 201.664 76.0312L201.678 75.9629H200.509L200.488 76.0244C200.283 76.6328 199.647 77.084 198.745 77.084C197.48 77.084 196.674 76.2295 196.646 74.7666H201.767V74.3291C201.767 72.1963 200.584 70.7539 198.643 70.7539C196.701 70.7539 195.443 72.2646 195.443 74.4658V74.4727C195.443 76.708 196.674 78.1367 198.718 78.1367ZM198.636 71.8066C199.675 71.8066 200.44 72.4561 200.557 73.8369H196.667C196.797 72.5107 197.604 71.8066 198.636 71.8066ZM205.492 78.1367C207.078 78.1367 208.254 77.2617 208.254 76.0176V76.0107C208.254 74.999 207.734 74.4316 206.299 74.083L205.171 73.8096C204.385 73.6182 204.063 73.2832 204.063 72.7979V72.791C204.063 72.1621 204.597 71.7451 205.458 71.7451C206.34 71.7451 206.866 72.2031 206.962 72.8936L206.969 72.9414H208.104L208.097 72.8525C208.008 71.6631 207.017 70.7539 205.458 70.7539C203.92 70.7539 202.847 71.6221 202.847 72.8457V72.8525C202.847 73.8779 203.496 74.5 204.836 74.8213L205.964 75.0947C206.771 75.293 207.037 75.5801 207.037 76.0928V76.0996C207.037 76.7422 206.463 77.1455 205.499 77.1455C204.528 77.1455 204.002 76.7285 203.858 76.0176L203.845 75.9492H202.655L202.662 76.0107C202.806 77.2822 203.817 78.1367 205.492 78.1367Z" fill="black"/>
<path d="M72 115C91.33 115 107 99.33 107 80C107 60.67 91.33 45 72 45C52.67 45 37 60.67 37 80C37 99.33 52.67 115 72 115Z" fill="#FAE07E"/>
<path d="M72.802 86.4067L74.0675 96.4478" stroke="#DC3226" stroke-width="5.46" stroke-linecap="round" stroke-linejoin="round"/>
<path d="M82.922 97.7133C82.2654 97.7577 81.6471 98.0387 81.1817 98.5041C80.7163 98.9694 80.4354 99.5877 80.3909 100.244L74.6936 98.9788C74.0631 98.9788 72.7975 98.1258 72.7975 97.0782C72.7975 96.5753 72.9973 96.093 73.3529 95.7375C73.7084 95.3819 74.1907 95.1821 74.6936 95.1821H81.6472C80.3816 96.4477 82.9128 97.7133 82.9128 97.7133" fill="#DC3226"/>
<path d="M70.2707 88.9377L71.5363 98.9788" stroke="#EF4423" stroke-width="5.46" stroke-linecap="round" stroke-linejoin="round"/>
<path d="M80.3906 100.244C79.7347 100.289 79.117 100.569 78.6517 101.033C78.1864 101.498 77.905 102.115 77.8594 102.771L72.1667 101.491C71.5363 101.491 70.2707 100.638 70.2707 99.5907C70.2707 99.0879 70.4705 98.6056 70.826 98.25C71.1816 97.8945 71.6639 97.6947 72.1667 97.6947H79.1204C77.8548 98.9603 80.3859 100.226 80.3859 100.226" fill="#EF4423"/>
<path d="M85.453 71.1458C85.453 71.1458 94.3073 74.9378 94.3073 81.2656C94.3073 81.2656 95.5728 91.3901 77.8596 92.6557C60.1464 93.9212 60.151 90.1246 58.8854 88.859C57.6199 87.5934 51.2921 80.8716 51.2921 80.8716C51.2921 80.8716 65.2086 73.6769 76.594 73.6769C79.72 73.6392 82.7789 72.7652 85.453 71.1458Z" fill="#BDAAA4"/>
<path d="M94.3075 81.2656C94.3075 74.9378 85.4532 71.1458 85.4532 71.1458C82.7796 72.7623 79.723 73.6361 76.5989 73.6769C76.6499 73.7279 85.4532 77.4689 81.6565 82.5312C86.7188 84.3484 88.2208 86.9583 89.2221 89.6285C94.9194 86.2212 94.3214 81.2842 94.3214 81.2842" fill="#795649"/>
<path d="M56.3541 86.3279L58.8852 88.859C58.9765 87.8869 59.4279 86.9841 60.1508 86.3279C61.4117 85.0623 56.3541 86.3279 56.3541 86.3279Z" fill="#4E342E"/>
<path d="M76.5989 73.6769H76.8632H76.5943C65.2089 73.6769 47.4956 80.0047 47.4956 80.0047C47.4956 80.0047 50.6619 84.0332 54.5188 82.7861C60.6195 80.8345 70.4149 78.6835 81.8698 77.7239C80.2798 75.2623 76.6221 73.7001 76.5897 73.6676" fill="#4E342E"/>
<path d="M87.9842 62.9218C87.9842 64.0489 87.6499 65.1506 87.0237 66.0876C86.3975 67.0246 85.5074 67.7549 84.4661 68.1859C83.4247 68.617 82.279 68.7296 81.1736 68.5094C80.0683 68.2892 79.0532 67.7461 78.2566 66.9488C77.46 66.1516 76.9177 65.136 76.6984 64.0305C76.4791 62.925 76.5926 61.7793 77.0245 60.7383C77.4564 59.6974 78.1874 58.8079 79.1249 58.1824C80.0625 57.5569 81.1645 57.2236 82.2915 57.2245C83.0395 57.2245 83.7801 57.3719 84.4711 57.6583C85.162 57.9446 85.7898 58.3644 86.3185 58.8935C86.8472 59.4226 87.2664 60.0507 87.5522 60.7419C87.838 61.4331 87.9848 62.1739 87.9842 62.9218Z" fill="#4DAF4E"/>
<path d="M76.5941 62.2915C75.8324 66.0484 75.8324 69.92 76.5941 73.6769C82.9219 76.2081 85.453 71.1458 85.453 71.1458C85.453 71.1458 82.9219 69.8802 86.7186 66.0836L76.5941 62.2915Z" fill="#4DAF4E"/>
<path d="M86.7787 71.8226C85.9814 71.3914 85.4529 71.1643 85.4529 71.1643C85.1262 70.9784 84.874 70.6852 84.739 70.3345C83.4549 71.5629 80.7429 73.0742 76.1674 70.7285C76.2591 71.7179 76.4014 72.702 76.5939 73.6769C77.8629 74.1837 79.2144 74.4524 80.5807 74.4696C81.7393 74.4714 82.8861 74.2377 83.9516 73.7827C85.017 73.3276 85.9789 72.6608 86.7787 71.8226Z" fill="#EEECE9"/>
<path d="M95.5541 66.0834C95.5541 66.7834 94.9236 67.1682 94.2885 67.349C93.6534 67.5298 93.023 66.7834 93.023 66.0834C93.023 65.7478 93.1563 65.4259 93.3937 65.1885C93.631 64.9512 93.9529 64.8179 94.2885 64.8179C94.6242 64.8179 94.9461 64.9512 95.1834 65.1885C95.4208 65.4259 95.5541 65.7478 95.5541 66.0834Z" fill="#F9BF2C"/>
<path d="M87.9841 62.2915C87.9841 62.2915 90.0795 64.8226 94.3073 64.8226C95.5728 64.8226 94.3073 67.3491 94.3073 67.3491C94.3073 67.3491 89.1662 68.9902 85.3742 67.7246C87.5483 66.2412 87.9841 63.5524 87.9841 62.2915Z" fill="#F9BF2C"/>
<path d="M85.0821 61.392C85.5782 61.888 85.453 63.5523 85.453 63.5523C85.453 63.5523 83.7887 63.6775 83.2927 63.1814C82.7967 62.6854 82.9219 61.0212 82.9219 61.0212C82.9219 61.0212 84.5861 60.896 85.0821 61.392Z" fill="#014D41"/>
<path d="M90.0655 65.0404C90.0238 65.212 89.7039 65.2815 89.3562 65.1934C89.0085 65.1053 88.7675 64.8921 88.8092 64.7298C88.8509 64.5676 89.1754 64.4888 89.5185 64.5769C89.8615 64.6649 90.1119 64.8828 90.0655 65.0404Z" fill="#6B4E1F"/>
<path d="M81.698 77.4689H81.647C70.2616 77.4689 49.9987 83.7967 49.9987 83.7967C49.9987 83.7967 52.8636 87.8298 56.5954 87.3013C63.1643 86.3742 73.5854 84.951 81.6285 82.5311C83.0702 80.6073 82.6947 78.8781 81.6702 77.4689" fill="#A1887F"/>
<path d="M85.819 67.7198C85.819 67.7198 88.8971 68.9575 94.3024 67.4648C94.3024 67.4648 95.9481 67.2052 96.0362 66.139C96.1243 65.0727 95.0303 64.7714 94.4971 64.79C92.7718 64.7711 91.0879 64.2596 89.6435 63.3158C89.6435 63.3158 87.8495 62.0317 87.8263 61.7118C87.8031 61.3919 85.819 67.7198 85.819 67.7198Z" fill="#EF4423"/>
<path d="M77.0528 73.7231C77.0528 73.7231 75.1151 62.3562 78.4018 59.2549C81.6886 56.1536 85.1191 57.0622 87.0568 59.2549C88.9945 61.4476 89.1197 65.0033 86.1528 67.3953C86.1528 67.3953 84.5998 68.9437 85.2257 70.3019C85.431 70.7003 85.7346 71.0397 86.1078 71.288C86.481 71.5362 86.9113 71.6851 87.3581 71.7205C87.3581 71.7205 82.9959 76.8894 77.0528 73.7231Z" fill="#7A574A"/>
<path d="M84.9984 61.9298C85.4874 61.9298 85.8838 61.413 85.8838 60.7755C85.8838 60.138 85.4874 59.6212 84.9984 59.6212C84.5094 59.6212 84.113 60.138 84.113 60.7755C84.113 61.413 84.5094 61.9298 84.9984 61.9298Z" fill="#231F20"/>
<g filter="url(#filter1_bd)">
<path d="M130 116C130 121.523 134.477 126 140 126H150C155.523 126 160 121.523 160 116V106C160 100.477 155.523 96 150 96H140C134.477 96 130 100.477 130 106V116Z" fill="url(#paint0_linear)"/>
<path d="M130.25 116C130.25 121.385 134.615 125.75 140 125.75H150C155.385 125.75 159.75 121.385 159.75 116V106C159.75 100.615 155.385 96.25 150 96.25H140C134.615 96.25 130.25 100.615 130.25 106V116Z" stroke="url(#paint1_linear)" stroke-width="0.5"/>
</g>
<path d="M144.283 118.606C143.251 118.606 142.261 118.287 141.529 117.718C140.798 117.15 140.386 116.378 140.383 115.572C140.383 113.667 143.464 103.941 143.595 103.528C143.633 103.408 143.721 103.301 143.846 103.225C143.971 103.149 144.125 103.107 144.283 103.107C144.442 103.107 144.596 103.149 144.72 103.225C144.845 103.301 144.934 103.408 144.972 103.528C145.103 103.941 148.184 113.667 148.184 115.572C148.181 116.378 147.769 117.15 147.037 117.718C146.306 118.287 145.316 118.606 144.283 118.606ZM144.283 106.01C143.247 109.406 141.801 114.404 141.801 115.572C141.801 116.086 142.063 116.579 142.528 116.942C142.994 117.305 143.625 117.51 144.283 117.51C144.942 117.51 145.573 117.305 146.039 116.942C146.504 116.579 146.766 116.086 146.766 115.572C146.766 114.404 145.319 109.406 144.283 106.01Z" fill="#00398E"/>
<path d="M139 76.25C138.382 76.25 137.778 76.0667 137.264 75.7233C136.75 75.38 136.349 74.8919 136.113 74.3209C135.876 73.7499 135.814 73.1215 135.935 72.5153C136.056 71.9092 136.353 71.3523 136.79 70.9153C137.227 70.4783 137.784 70.1806 138.39 70.06C138.997 69.9395 139.625 70.0014 140.196 70.2379C140.767 70.4744 141.255 70.8749 141.598 71.3888C141.942 71.9027 142.125 72.5069 142.125 73.125C142.124 73.9535 141.795 74.7478 141.209 75.3337C140.623 75.9195 139.829 76.2491 139 76.25ZM139 71.25C138.629 71.25 138.267 71.36 137.958 71.566C137.65 71.772 137.41 72.0649 137.268 72.4075C137.126 72.7501 137.089 73.1271 137.161 73.4908C137.233 73.8545 137.412 74.1886 137.674 74.4508C137.936 74.7131 138.27 74.8916 138.634 74.964C138.998 75.0363 139.375 74.9992 139.718 74.8573C140.06 74.7154 140.353 74.475 140.559 74.1667C140.765 73.8584 140.875 73.4958 140.875 73.125C140.874 72.6279 140.677 72.1513 140.325 71.7998C139.974 71.4483 139.497 71.2505 139 71.25Z" fill="#00398E"/>
<path d="M139 83.75L133.728 77.5321C133.698 77.4964 133.51 77.2499 133.51 77.2499C132.61 76.0636 132.123 74.6145 132.125 73.125C132.125 71.3016 132.849 69.553 134.139 68.2636C135.428 66.9743 137.177 66.25 139 66.25C140.823 66.25 142.572 66.9743 143.861 68.2636C145.151 69.553 145.875 71.3016 145.875 73.125C145.877 74.6139 145.391 76.0624 144.491 77.2483L144.49 77.2499C144.49 77.2499 144.302 77.4964 144.274 77.5295L139 83.75ZM134.508 76.4969C134.508 76.4973 134.654 76.6895 134.687 76.7309L139 81.8174L143.319 76.7237C143.346 76.6892 143.493 76.4956 143.493 76.4951C144.229 75.5258 144.626 74.342 144.625 73.125C144.625 71.6332 144.032 70.2024 142.977 69.1475C141.923 68.0926 140.492 67.5 139 67.5C137.508 67.5 136.077 68.0926 135.023 69.1475C133.968 70.2024 133.375 71.6332 133.375 73.125C133.374 74.3426 133.772 75.5271 134.508 76.4969Z" fill="#00398E"/>
<path d="M332.625 79.5H360.375" stroke="#00398E" stroke-width="2" stroke-linecap="round"/>
<path d="M351.125 88.75L360.375 79.5L351.125 70.25" stroke="#00398E" stroke-width="2" stroke-linecap="round"/>
<defs>
<filter id="filter0_d" x="0" y="0" width="412" height="166" filterUnits="userSpaceOnUse" color-interpolation-filters="sRGB">
<feFlood flood-opacity="0" result="BackgroundImageFix"/>
<feColorMatrix in="SourceAlpha" type="matrix" values="0 0 0 0 0 0 0 0 0 0 0 0 0 0 0 0 0 0 127 0" result="hardAlpha"/>
<feMorphology radius="2" operator="dilate" in="SourceAlpha" result="effect1_dropShadow"/>
<feOffset dy="4"/>
<feGaussianBlur stdDeviation="10"/>
<feColorMatrix type="matrix" values="0 0 0 0 0.691667 0 0 0 0 0.691667 0 0 0 0 0.691667 0 0 0 0.25 0"/>
<feBlend mode="normal" in2="BackgroundImageFix" result="effect1_dropShadow"/>
<feBlend mode="normal" in="SourceGraphic" in2="effect1_dropShadow" result="shape"/>
</filter>
<filter id="filter1_bd" x="90" y="56" width="110" height="110" filterUnits="userSpaceOnUse" color-interpolation-filters="sRGB">
<feFlood flood-opacity="0" result="BackgroundImageFix"/>
<feGaussianBlur in="BackgroundImage" stdDeviation="20"/>
<feComposite in2="SourceAlpha" operator="in" result="effect1_backgroundBlur"/>
<feColorMatrix in="SourceAlpha" type="matrix" values="0 0 0 0 0 0 0 0 0 0 0 0 0 0 0 0 0 0 127 0" result="hardAlpha"/>
<feMorphology radius="1" operator="erode" in="SourceAlpha" result="effect2_dropShadow"/>
<feOffset dy="4"/>
<feGaussianBlur stdDeviation="12"/>
<feColorMatrix type="matrix" values="0 0 0 0 0.85 0 0 0 0 0.85 0 0 0 0 0.85 0 0 0 0.25 0"/>
<feBlend mode="normal" in2="effect1_backgroundBlur" result="effect2_dropShadow"/>
<feBlend mode="normal" in="SourceGraphic" in2="effect2_dropShadow" result="shape"/>
</filter>
<linearGradient id="paint0_linear" x1="164.819" y1="131.326" x2="132.21" y2="97.0507" gradientUnits="userSpaceOnUse">
<stop stop-color="#C0E2E8"/>
<stop offset="1" stop-color="#C0E2E8" stop-opacity="0.1"/>
</linearGradient>
<linearGradient id="paint1_linear" x1="145" y1="126" x2="145" y2="96" gradientUnits="userSpaceOnUse">
<stop stop-color="#C0E2E8" stop-opacity="0.1"/>
<stop offset="0.348958" stop-color="#C0E2E8" stop-opacity="0.1"/>
<stop offset="0.677083" stop-color="#C0E2E8" stop-opacity="0.1"/>
<stop offset="1" stop-color="#C0E2E8" stop-opacity="0.1"/>
</linearGradient>
</defs>
</svg>
