<svg width="70" height="70" viewBox="0 0 70 70" fill="none" xmlns="http://www.w3.org/2000/svg">
<path d="M35 70C54.33 70 70 54.33 70 35C70 15.67 54.33 0 35 0C15.67 0 0 15.67 0 35C0 54.33 15.67 70 35 70Z" fill="#FAE07E"/>
<path d="M35.802 41.4067L37.0675 51.4478" stroke="#DC3226" stroke-width="5.46" stroke-linecap="round" stroke-linejoin="round"/>
<path d="M45.922 52.7133C45.2654 52.7577 44.6471 53.0387 44.1817 53.5041C43.7163 53.9694 43.4354 54.5877 43.3909 55.2444L37.6936 53.9788C37.0631 53.9788 35.7975 53.1258 35.7975 52.0782C35.7975 51.5753 35.9973 51.093 36.3529 50.7375C36.7084 50.3819 37.1907 50.1821 37.6936 50.1821H44.6472C43.3816 51.4477 45.9128 52.7133 45.9128 52.7133" fill="#DC3226"/>
<path d="M33.2707 43.9377L34.5363 53.9788" stroke="#EF4423" stroke-width="5.46" stroke-linecap="round" stroke-linejoin="round"/>
<path d="M43.3906 55.2444C42.7347 55.2887 42.117 55.569 41.6517 56.0334C41.1864 56.4979 40.905 57.115 40.8594 57.7709L35.1667 56.4914C34.5363 56.4914 33.2707 55.6384 33.2707 54.5907C33.2707 54.0879 33.4705 53.6056 33.826 53.25C34.1816 52.8945 34.6639 52.6947 35.1667 52.6947H42.1204C40.8548 53.9603 43.3859 55.2258 43.3859 55.2258" fill="#EF4423"/>
<path d="M48.453 26.1458C48.453 26.1458 57.3073 29.9378 57.3073 36.2656C57.3073 36.2656 58.5728 46.3901 40.8596 47.6557C23.1464 48.9212 23.151 45.1246 21.8854 43.859C20.6199 42.5934 14.2921 35.8716 14.2921 35.8716C14.2921 35.8716 28.2086 28.6769 39.594 28.6769C42.72 28.6392 45.7789 27.7652 48.453 26.1458Z" fill="#BDAAA4"/>
<path d="M57.3075 36.2656C57.3075 29.9378 48.4532 26.1458 48.4532 26.1458C45.7796 27.7623 42.723 28.6361 39.5989 28.6769C39.6499 28.7279 48.4532 32.4689 44.6565 37.5312C49.7188 39.3484 51.2208 41.9583 52.2221 44.6285C57.9194 41.2212 57.3214 36.2842 57.3214 36.2842" fill="#795649"/>
<path d="M19.3541 41.3279L21.8852 43.859C21.9765 42.8869 22.4279 41.9841 23.1508 41.3279C24.4117 40.0623 19.3541 41.3279 19.3541 41.3279Z" fill="#4E342E"/>
<path d="M39.5989 28.6769H39.8632H39.5943C28.2089 28.6769 10.4956 35.0047 10.4956 35.0047C10.4956 35.0047 13.6619 39.0332 17.5188 37.7861C23.6195 35.8345 33.4149 33.6835 44.8698 32.7239C43.2798 30.2623 39.6221 28.7001 39.5897 28.6676" fill="#4E342E"/>
<path d="M50.9842 17.9218C50.9842 19.0489 50.6499 20.1506 50.0237 21.0876C49.3975 22.0246 48.5074 22.7549 47.4661 23.1859C46.4247 23.617 45.279 23.7296 44.1736 23.5094C43.0683 23.2892 42.0532 22.7461 41.2566 21.9488C40.46 21.1516 39.9177 20.136 39.6984 19.0305C39.4791 17.925 39.5926 16.7793 40.0245 15.7383C40.4564 14.6974 41.1874 13.8079 42.1249 13.1824C43.0625 12.5569 44.1645 12.2236 45.2915 12.2245C46.0395 12.2245 46.7801 12.3719 47.4711 12.6583C48.162 12.9446 48.7898 13.3644 49.3185 13.8935C49.8472 14.4226 50.2664 15.0507 50.5522 15.7419C50.838 16.4331 50.9848 17.1739 50.9842 17.9218Z" fill="#4DAF4E"/>
<path d="M39.5941 17.2915C38.8324 21.0484 38.8324 24.92 39.5941 28.6769C45.9219 31.2081 48.453 26.1458 48.453 26.1458C48.453 26.1458 45.9219 24.8802 49.7186 21.0836L39.5941 17.2915Z" fill="#4DAF4E"/>
<path d="M49.7787 26.8226C48.9814 26.3914 48.4529 26.1643 48.4529 26.1643C48.1262 25.9784 47.874 25.6852 47.739 25.3345C46.4549 26.5629 43.7429 28.0742 39.1674 25.7285C39.2591 26.7179 39.4014 27.702 39.5939 28.6769C40.8629 29.1837 42.2144 29.4524 43.5807 29.4696C44.7393 29.4714 45.8861 29.2377 46.9516 28.7827C48.017 28.3276 48.9789 27.6608 49.7787 26.8226Z" fill="#EEECE9"/>
<path d="M58.5541 21.0834C58.5541 21.7834 57.9236 22.1682 57.2885 22.349C56.6534 22.5298 56.023 21.7834 56.023 21.0834C56.023 20.7478 56.1563 20.4259 56.3937 20.1885C56.631 19.9512 56.9529 19.8179 57.2885 19.8179C57.6242 19.8179 57.9461 19.9512 58.1834 20.1885C58.4208 20.4259 58.5541 20.7478 58.5541 21.0834Z" fill="#F9BF2C"/>
<path d="M50.9841 17.2915C50.9841 17.2915 53.0795 19.8226 57.3073 19.8226C58.5728 19.8226 57.3073 22.3491 57.3073 22.3491C57.3073 22.3491 52.1662 23.9902 48.3742 22.7246C50.5483 21.2412 50.9841 18.5524 50.9841 17.2915Z" fill="#F9BF2C"/>
<path d="M48.0821 16.392C48.5782 16.888 48.453 18.5523 48.453 18.5523C48.453 18.5523 46.7887 18.6775 46.2927 18.1814C45.7967 17.6854 45.9219 16.0212 45.9219 16.0212C45.9219 16.0212 47.5861 15.896 48.0821 16.392Z" fill="#014D41"/>
<path d="M53.0655 20.0404C53.0238 20.212 52.7039 20.2815 52.3562 20.1934C52.0085 20.1053 51.7675 19.8921 51.8092 19.7298C51.8509 19.5676 52.1754 19.4888 52.5185 19.5769C52.8615 19.6649 53.1119 19.8828 53.0655 20.0404Z" fill="#6B4E1F"/>
<path d="M44.698 32.4689H44.647C33.2616 32.4689 12.9987 38.7967 12.9987 38.7967C12.9987 38.7967 15.8636 42.8298 19.5954 42.3013C26.1643 41.3742 36.5854 39.951 44.6285 37.5311C46.0702 35.6073 45.6947 33.8781 44.6702 32.4689" fill="#A1887F"/>
<path d="M48.819 22.7198C48.819 22.7198 51.8971 23.9575 57.3024 22.4648C57.3024 22.4648 58.9481 22.2052 59.0362 21.139C59.1243 20.0727 58.0303 19.7714 57.4971 19.79C55.7718 19.7711 54.0879 19.2596 52.6435 18.3158C52.6435 18.3158 50.8495 17.0317 50.8263 16.7118C50.8031 16.3919 48.819 22.7198 48.819 22.7198Z" fill="#EF4423"/>
<path d="M40.0528 28.7231C40.0528 28.7231 38.1151 17.3562 41.4018 14.2549C44.6886 11.1536 48.1191 12.0622 50.0568 14.2549C51.9945 16.4476 52.1197 20.0033 49.1528 22.3953C49.1528 22.3953 47.5998 23.9437 48.2257 25.3019C48.431 25.7003 48.7346 26.0397 49.1078 26.288C49.481 26.5362 49.9113 26.6851 50.3581 26.7205C50.3581 26.7205 45.9959 31.8894 40.0528 28.7231Z" fill="#7A574A"/>
<path d="M47.9984 16.9298C48.4874 16.9298 48.8838 16.413 48.8838 15.7755C48.8838 15.138 48.4874 14.6212 47.9984 14.6212C47.5094 14.6212 47.113 15.138 47.113 15.7755C47.113 16.413 47.5094 16.9298 47.9984 16.9298Z" fill="#231F20"/>
</svg>
