<svg width="412" height="166" viewBox="0 0 412 166" fill="none" xmlns="http://www.w3.org/2000/svg">
<g filter="url(#filter0_d)">
<rect x="22" y="18" width="368" height="122" rx="20" fill="white"/>
<rect x="22.5" y="18.5" width="367" height="121" rx="19.5" stroke="#00398E"/>
</g>
<path d="M130.237 54H132.61L133.674 50.7217H138.358L139.422 54H141.795L137.295 41.3174H134.737L130.237 54ZM135.994 43.5762H136.038L137.787 48.9727H134.245L135.994 43.5762ZM142.938 54H145.126V48.5947C145.126 47.25 145.926 46.3359 147.183 46.3359C148.431 46.3359 149.046 47.083 149.046 48.4102V54H151.234V47.9707C151.234 45.8086 150.065 44.4902 148.018 44.4902C146.603 44.4902 145.653 45.1406 145.17 46.1426H145.126V44.6836H142.938V54ZM157.114 54.1846C159.848 54.1846 161.623 52.3652 161.623 49.3418V49.3242C161.623 46.3184 159.821 44.4902 157.105 44.4902C154.398 44.4902 152.605 46.3359 152.605 49.3242V49.3418C152.605 52.3564 154.372 54.1846 157.114 54.1846ZM157.123 52.418C155.726 52.418 154.838 51.3018 154.838 49.3418V49.3242C154.838 47.3906 155.743 46.2656 157.105 46.2656C158.494 46.2656 159.391 47.3818 159.391 49.3242V49.3418C159.391 51.293 158.503 52.418 157.123 52.418ZM163.029 54H165.218V48.5947C165.218 47.25 166.018 46.3359 167.274 46.3359C168.522 46.3359 169.138 47.083 169.138 48.4102V54H171.326V47.9707C171.326 45.8086 170.157 44.4902 168.109 44.4902C166.694 44.4902 165.745 45.1406 165.262 46.1426H165.218V44.6836H163.029V54ZM174.297 57.0938C176.239 57.0938 177.329 56.3643 178.041 54.3164L181.39 44.6836H179.087L176.898 52.1367H176.837L174.657 44.6836H172.267L175.615 54.0088L175.483 54.3867C175.202 55.1689 174.736 55.4062 173.901 55.4062C173.594 55.4062 173.339 55.3623 173.172 55.3271V56.9971C173.436 57.041 173.875 57.0938 174.297 57.0938ZM182.4 54H184.589V48.2959C184.589 47.1621 185.327 46.3359 186.382 46.3359C187.401 46.3359 188.034 46.9863 188.034 48.0322V54H190.161V48.2432C190.161 47.1182 190.882 46.3359 191.937 46.3359C193.009 46.3359 193.606 46.9951 193.606 48.1465V54H195.795V47.6016C195.795 45.7383 194.591 44.4902 192.754 44.4902C191.409 44.4902 190.302 45.2109 189.854 46.3711H189.801C189.458 45.1758 188.518 44.4902 187.217 44.4902C185.986 44.4902 185.028 45.1582 184.633 46.1777H184.589V44.6836H182.4V54ZM201.675 54.1846C204.408 54.1846 206.184 52.3652 206.184 49.3418V49.3242C206.184 46.3184 204.382 44.4902 201.666 44.4902C198.959 44.4902 197.166 46.3359 197.166 49.3242V49.3418C197.166 52.3564 198.933 54.1846 201.675 54.1846ZM201.684 52.418C200.286 52.418 199.398 51.3018 199.398 49.3418V49.3242C199.398 47.3906 200.304 46.2656 201.666 46.2656C203.055 46.2656 203.951 47.3818 203.951 49.3242V49.3418C203.951 51.293 203.063 52.418 201.684 52.418ZM210.763 54.1846C212.169 54.1846 213.127 53.5342 213.61 52.541H213.654V54H215.843V44.6836H213.654V50.0801C213.654 51.4336 212.854 52.3389 211.598 52.3389C210.35 52.3389 209.734 51.5918 209.734 50.2734V44.6836H207.546V50.7041C207.546 52.8662 208.715 54.1846 210.763 54.1846ZM221.283 54.1846C223.568 54.1846 225.194 53.0068 225.194 51.249V51.2402C225.194 49.8867 224.447 49.1309 222.522 48.7002L220.967 48.3574C220 48.1377 219.64 47.7861 219.64 47.25V47.2412C219.64 46.5557 220.246 46.1074 221.213 46.1074C222.232 46.1074 222.83 46.6523 222.927 47.3994L222.936 47.4697H224.975L224.966 47.373C224.887 45.7646 223.533 44.4902 221.213 44.4902C218.963 44.4902 217.478 45.6416 217.478 47.3467V47.3555C217.478 48.7354 218.374 49.6055 220.158 50.001L221.705 50.3438C222.672 50.5635 222.997 50.8799 222.997 51.4424V51.4512C222.997 52.1367 222.355 52.5674 221.292 52.5674C220.185 52.5674 219.578 52.0928 219.411 51.293L219.394 51.2139H217.24L217.249 51.293C217.442 53.0244 218.84 54.1846 221.283 54.1846ZM230.415 54H235.732C238.439 54 240.083 52.6289 240.083 50.3965V50.3789C240.083 48.709 238.87 47.4609 237.086 47.3027V47.25C238.439 47.0654 239.468 45.8525 239.468 44.499V44.4814C239.468 42.5566 237.982 41.3174 235.68 41.3174H230.415V54ZM235.108 43.084C236.453 43.084 237.227 43.6992 237.227 44.7891V44.8066C237.227 45.9756 236.339 46.6436 234.757 46.6436H232.683V43.084H235.108ZM235.117 48.2871C236.857 48.2871 237.771 48.9639 237.771 50.2471V50.2646C237.771 51.5566 236.875 52.2334 235.214 52.2334H232.683V48.2871H235.117ZM244.231 54.1582C245.462 54.1582 246.499 53.543 247.035 52.5674H247.088V54H249.276V47.5928C249.276 45.7207 247.773 44.4902 245.444 44.4902C243.08 44.4902 241.647 45.7295 241.516 47.3818L241.507 47.4873H243.537L243.555 47.4082C243.695 46.7227 244.328 46.2393 245.365 46.2393C246.473 46.2393 247.088 46.8105 247.088 47.751V48.3926L244.653 48.542C242.395 48.6826 241.111 49.6758 241.111 51.3281V51.3457C241.111 53.0068 242.368 54.1582 244.231 54.1582ZM243.291 51.2578V51.249C243.291 50.5107 243.88 50.0449 244.961 49.9746L247.088 49.8428V50.5459C247.088 51.6533 246.139 52.4883 244.882 52.4883C243.924 52.4883 243.291 52.0225 243.291 51.2578ZM254.506 54.1846C255.851 54.1846 256.879 53.5166 257.406 52.418H257.459V54H259.647V41.3174H257.459V46.2832H257.406C256.879 45.167 255.815 44.4902 254.497 44.4902C252.159 44.4902 250.656 46.3271 250.656 49.333V49.3418C250.656 52.3389 252.15 54.1846 254.506 54.1846ZM255.165 52.3389C253.759 52.3389 252.889 51.1963 252.889 49.3418V49.333C252.889 47.4785 253.768 46.3359 255.165 46.3359C256.51 46.3359 257.459 47.5137 257.459 49.333V49.3418C257.459 51.1699 256.519 52.3389 255.165 52.3389ZM265.686 57.2607C268.384 57.2607 270.08 55.8457 270.08 53.7363V44.6836H267.892V46.2656H267.839C267.312 45.1934 266.292 44.4902 264.974 44.4902C262.618 44.4902 261.098 46.3008 261.098 49.2451V49.2539C261.098 52.1543 262.601 53.9473 264.938 53.9473C266.274 53.9473 267.329 53.3145 267.848 52.3213H267.892V53.666C267.892 54.8525 267.109 55.6084 265.686 55.6084C264.543 55.6084 263.796 55.2041 263.559 54.668L263.532 54.5977H261.379L261.396 54.6768C261.66 56.1357 263.216 57.2607 265.686 57.2607ZM265.624 52.2598C264.218 52.2598 263.33 51.126 263.33 49.2891V49.2803C263.33 47.4697 264.218 46.3359 265.624 46.3359C266.978 46.3359 267.9 47.4873 267.9 49.2891V49.2979C267.9 51.1084 266.986 52.2598 265.624 52.2598ZM275.969 54.1846C278.403 54.1846 279.774 52.7432 280.064 51.3105L280.091 51.2139H278.043L278.025 51.2754C277.814 51.8994 277.103 52.4795 276.013 52.4795C274.589 52.4795 273.692 51.5127 273.657 49.8779H280.179V49.1748C280.179 46.3623 278.526 44.4902 275.863 44.4902C273.2 44.4902 271.486 46.4238 271.486 49.3594V49.3682C271.486 52.3301 273.174 54.1846 275.969 54.1846ZM275.89 46.2041C277.05 46.2041 277.894 46.9424 278.052 48.4189H273.684C273.859 46.9863 274.729 46.2041 275.89 46.2041ZM281.594 54H283.782V48.542C283.782 47.2324 284.529 46.4326 285.769 46.4326C286.138 46.4326 286.472 46.4854 286.656 46.5557V44.5781C286.489 44.5342 286.234 44.4902 285.962 44.4902C284.863 44.4902 284.046 45.1494 283.765 46.2393H283.721V44.6836H281.594V54Z" fill="black"/>
<path d="M161.238 78.1641C163.508 78.1641 164.868 76.2021 164.868 73.0713V73.0576C164.868 69.9268 163.508 67.9717 161.238 67.9717C158.969 67.9717 157.622 69.9268 157.622 73.0576V73.0713C157.622 76.2021 158.969 78.1641 161.238 78.1641ZM161.238 77.0908C159.734 77.0908 158.859 75.5459 158.859 73.0713V73.0576C158.859 70.583 159.734 69.0518 161.238 69.0518C162.742 69.0518 163.631 70.583 163.631 73.0576V73.0713C163.631 75.5459 162.742 77.0908 161.238 77.0908ZM166.721 78.0957C167.158 78.0957 167.5 77.7539 167.5 77.3164C167.5 76.8789 167.158 76.5371 166.721 76.5371C166.283 76.5371 165.941 76.8789 165.941 77.3164C165.941 77.7539 166.283 78.0957 166.721 78.0957ZM169.024 78H175.539V76.9062H170.713V76.8789L173.058 74.4727C174.869 72.6201 175.368 71.8066 175.368 70.7266V70.7129C175.368 69.168 174.062 67.9717 172.278 67.9717C170.439 67.9717 168.963 69.2363 168.963 70.9453V70.9863H170.152V70.9521C170.152 69.8926 171.068 69.0449 172.299 69.0449C173.372 69.0449 174.131 69.7695 174.138 70.7744V70.7881C174.138 71.6084 173.83 72.1416 172.497 73.5293L169.024 77.1523V78ZM179.798 78H180.987V73.543C180.987 72.5518 181.671 71.8066 182.614 71.8066C183.496 71.8066 184.07 72.374 184.07 73.2354V78H185.26V73.4814C185.26 72.5107 185.923 71.8066 186.866 71.8066C187.803 71.8066 188.343 72.3877 188.343 73.3652V78H189.532V73.0918C189.532 71.6768 188.623 70.7539 187.215 70.7539C186.217 70.7539 185.383 71.2666 184.986 72.1211H184.959C184.651 71.2529 183.934 70.7539 182.963 70.7539C182.047 70.7539 181.336 71.2256 181.015 71.9297H180.987V70.8906H179.798V78ZM191.72 69.6875C192.137 69.6875 192.465 69.3525 192.465 68.9424C192.465 68.5254 192.137 68.1973 191.72 68.1973C191.31 68.1973 190.975 68.5254 190.975 68.9424C190.975 69.3525 191.31 69.6875 191.72 69.6875ZM191.125 78H192.314V70.8906H191.125V78ZM193.996 78H195.186V68.1357H193.996V78ZM199.718 78.1367C201.27 78.1367 202.432 77.207 202.664 76.0312L202.678 75.9629H201.509L201.488 76.0244C201.283 76.6328 200.647 77.084 199.745 77.084C198.48 77.084 197.674 76.2295 197.646 74.7666H202.767V74.3291C202.767 72.1963 201.584 70.7539 199.643 70.7539C197.701 70.7539 196.443 72.2646 196.443 74.4658V74.4727C196.443 76.708 197.674 78.1367 199.718 78.1367ZM199.636 71.8066C200.675 71.8066 201.44 72.4561 201.557 73.8369H197.667C197.797 72.5107 198.604 71.8066 199.636 71.8066ZM206.492 78.1367C208.078 78.1367 209.254 77.2617 209.254 76.0176V76.0107C209.254 74.999 208.734 74.4316 207.299 74.083L206.171 73.8096C205.385 73.6182 205.063 73.2832 205.063 72.7979V72.791C205.063 72.1621 205.597 71.7451 206.458 71.7451C207.34 71.7451 207.866 72.2031 207.962 72.8936L207.969 72.9414H209.104L209.097 72.8525C209.008 71.6631 208.017 70.7539 206.458 70.7539C204.92 70.7539 203.847 71.6221 203.847 72.8457V72.8525C203.847 73.8779 204.496 74.5 205.836 74.8213L206.964 75.0947C207.771 75.293 208.037 75.5801 208.037 76.0928V76.0996C208.037 76.7422 207.463 77.1455 206.499 77.1455C205.528 77.1455 205.002 76.7285 204.858 76.0176L204.845 75.9492H203.655L203.662 76.0107C203.806 77.2822 204.817 78.1367 206.492 78.1367Z" fill="black"/>
<path d="M74 117C93.33 117 109 101.33 109 82C109 62.67 93.33 47 74 47C54.67 47 39 62.67 39 82C39 101.33 54.67 117 74 117Z" fill="#FAE07E"/>
<path d="M90.0352 72.1537C90.0862 70.1742 90.1557 67.4762 89.5716 65.951L89.5299 65.8305C89.1219 64.7689 88.269 62.553 86.2849 62.553C85.6405 62.553 84.9961 62.9748 82.7385 64.6298C82.21 65.0146 81.6723 65.4132 81.1716 65.7609H66.8517C66.3511 65.4132 65.8133 65.0146 65.2849 64.6298C63.0272 62.9748 62.3829 62.553 61.7385 62.553C59.7498 62.553 58.8968 64.7689 58.4935 65.8305L58.4378 65.9742C57.8491 67.4993 57.9186 70.1974 57.9743 72.1768C55.9892 74.7099 54.5355 77.6173 53.7001 80.7252C57.4921 83.4046 66.5875 98.253 68.4094 101.266C68.6393 101.652 68.9779 101.962 69.3829 102.156C70.8352 102.831 72.4173 103.18 74.0186 103.18C75.62 103.18 77.202 102.831 78.6544 102.156C79.0583 101.96 79.3965 101.651 79.6279 101.266C81.4498 98.253 90.5451 83.4046 94.3372 80.7252C93.5018 77.6173 92.048 74.7099 90.063 72.1768" fill="#CFD8DC"/>
<path d="M65.6141 96.7371C66.8426 98.6841 67.8161 100.279 68.3307 101.123C68.6256 101.612 69.0643 101.999 69.587 102.23C70.9762 102.836 72.4754 103.149 73.991 103.149C75.5065 103.149 77.0057 102.836 78.3949 102.23C78.9176 101.999 79.3562 101.612 79.6512 101.123C80.1658 100.279 81.1393 98.6841 82.3678 96.7371C82.3678 96.7371 78.1956 101.011 73.9817 101.011C69.7678 101.011 65.5956 96.7371 65.5956 96.7371" fill="#B0BEC5"/>
<path d="M90.063 70.0582C90.063 70.7304 90.0352 71.449 90.0352 72.1536L87.8749 72.8397L84.6902 71.0827C85.4226 70.545 84.7782 63.6006 87.8981 63.6006C88.0536 63.5999 88.2088 63.6139 88.3617 63.6423C88.8611 64.3074 89.2551 65.0454 89.5299 65.8304L89.5855 65.9741C89.9842 67.0033 90.0769 68.5655 90.0815 70.0814L90.063 70.0582ZM57.9372 70.0582C57.9372 70.7304 57.965 71.449 57.965 72.1536L60.1253 72.8397L63.31 71.0827C62.5776 70.545 63.2219 63.6006 60.1021 63.6006C59.9466 63.5999 59.7914 63.6139 59.6385 63.6423C59.139 64.3074 58.745 65.0454 58.4703 65.8304L58.4147 65.9741C58.016 67.0033 57.9233 68.5655 57.9186 70.0814" fill="#90A4AE"/>
<path d="M71.5059 100.691C70.9864 100.543 70.5305 100.227 70.2086 99.7926C69.8868 99.3585 69.7171 98.8304 69.7258 98.2901V96.5424C69.7232 96.3463 69.7719 96.1529 69.867 95.9813C69.9621 95.8097 70.1004 95.666 70.2682 95.5643C71.4103 94.932 72.6944 94.6002 73.9999 94.6002C75.3055 94.6002 76.5896 94.932 77.7317 95.5643C77.8995 95.666 78.0378 95.8097 78.1329 95.9813C78.228 96.1529 78.2767 96.3463 78.2741 96.5424V98.2808C78.2833 98.8207 78.1137 99.3485 77.7918 99.782C77.4698 100.215 77.0135 100.53 76.494 100.678C74.8595 101.111 73.1404 101.111 71.5059 100.678" fill="#455B64"/>
<path d="M84.2171 80.5258C84.5204 81.0701 84.6799 81.6828 84.6807 82.3059C84.6781 83.0723 84.4402 83.8195 83.9991 84.4463C83.558 85.0731 82.935 85.5493 82.2144 85.8105C80.935 90.5853 81.4356 94.9523 83.086 95.6244C82.8542 95.9907 82.6224 96.3476 82.4045 96.6953C81.4774 96.3662 76.1277 93.9463 76.1277 81.7728C76.1277 71.6807 79.3356 65.7377 79.3356 65.7377H81.4727C81.4727 69.7152 84.4303 68.9456 86.8177 68.9456C89.2052 68.9456 88.8158 71.8383 90.0257 72.1536C87.7403 74.0821 85.6913 77.3642 84.2078 80.5258H84.2171ZM66.8515 65.7377H66.5177C66.5177 69.7152 63.5601 68.9456 61.1727 68.9456C58.7853 68.9456 59.1747 71.8383 57.9648 72.1536C60.2502 74.0821 62.2992 77.3642 63.7826 80.5258C63.4794 81.0701 63.3198 81.6828 63.3191 82.3059C63.3216 83.0723 63.5596 83.8195 64.0007 84.4463C64.4417 85.0731 65.0647 85.5493 65.7853 85.8105C67.0648 90.5853 66.5641 94.9523 64.9138 95.6244C65.1456 95.9907 65.3774 96.3476 65.5952 96.6953C66.5224 96.3662 71.8721 93.9463 71.8721 81.7728C71.8721 71.6807 68.6641 65.7377 68.6641 65.7377H66.8608" fill="#455B64"/>
<path d="M77.2079 97.8172C77.2079 98.029 77.1451 98.2361 77.0274 98.4122C76.9098 98.5883 76.7425 98.7255 76.5468 98.8066C76.3512 98.8876 76.1358 98.9088 75.9281 98.8675C75.7204 98.8262 75.5296 98.7242 75.3798 98.5744C75.2301 98.4247 75.1281 98.2339 75.0867 98.0261C75.0454 97.8184 75.0666 97.6031 75.1477 97.4074C75.2287 97.2117 75.366 97.0445 75.5421 96.9268C75.7182 96.8091 75.9252 96.7463 76.137 96.7463C76.421 96.7463 76.6934 96.8592 76.8942 97.06C77.0951 97.2608 77.2079 97.5332 77.2079 97.8172ZM71.8629 96.7463C71.6509 96.7454 71.4434 96.8075 71.2667 96.9246C71.0899 97.0417 70.952 97.2086 70.8702 97.4042C70.7884 97.5998 70.7666 97.8152 70.8074 98.0233C70.8482 98.2313 70.9498 98.4225 71.0994 98.5728C71.2489 98.723 71.4397 98.8254 71.6476 98.8671C71.8555 98.9088 72.071 98.8879 72.267 98.807C72.4629 98.7261 72.6304 98.5888 72.7483 98.4126C72.8662 98.2364 72.9291 98.0292 72.9291 97.8172C72.9291 97.534 72.8169 97.2623 72.6171 97.0616C72.4173 96.8609 72.1461 96.7476 71.8629 96.7463Z" fill="black"/>
<path d="M82.5761 82.3059C82.5761 82.6231 82.482 82.9332 82.3057 83.197C82.1295 83.4608 81.879 83.6664 81.5859 83.7878C81.2928 83.9092 80.9703 83.9409 80.6592 83.879C80.348 83.8171 80.0622 83.6644 79.8379 83.4401C79.6136 83.2158 79.4608 82.93 79.3989 82.6188C79.337 82.3077 79.3688 81.9852 79.4902 81.6921C79.6116 81.399 79.8172 81.1485 80.081 80.9722C80.3447 80.796 80.6549 80.7019 80.9721 80.7019C81.3975 80.7019 81.8055 80.8709 82.1063 81.1717C82.4071 81.4725 82.5761 81.8805 82.5761 82.3059ZM65.4701 82.3059C65.4701 82.6231 65.5642 82.9332 65.7404 83.197C65.9167 83.4608 66.1672 83.6664 66.4603 83.7878C66.7533 83.9092 67.0759 83.9409 67.387 83.879C67.6981 83.8171 67.9839 83.6644 68.2083 83.4401C68.4326 83.2158 68.5853 82.93 68.6472 82.6188C68.7091 82.3077 68.6774 81.9852 68.556 81.6921C68.4346 81.399 68.229 81.1485 67.9652 80.9722C67.7014 80.796 67.3913 80.7019 67.0741 80.7019C66.6487 80.7019 66.2407 80.8709 65.9399 81.1717C65.6391 81.4725 65.4701 81.8805 65.4701 82.3059Z" fill="black"/>
<g filter="url(#filter1_bd)">
<rect width="30" height="30" rx="10" transform="matrix(1 0 0 -1 130 124)" fill="url(#paint0_linear)"/>
<rect x="0.25" y="-0.25" width="29.5" height="29.5" rx="9.75" transform="matrix(1 0 0 -1 130 123.5)" stroke="url(#paint1_linear)" stroke-width="0.5"/>
</g>
<path d="M142.35 109.031L138.6 105.281L137.938 105.944L141.025 109.031H137.938V109.5C137.938 111.24 138.629 112.91 139.86 114.14C141.09 115.371 142.76 116.062 144.5 116.062C146.24 116.062 147.91 115.371 149.14 114.14C150.371 112.91 151.062 111.24 151.062 109.5V109.031H142.35ZM144.5 115.125C143.09 115.123 141.732 114.593 140.694 113.638C139.656 112.683 139.014 111.374 138.894 109.969H150.106C149.986 111.374 149.344 112.683 148.306 113.638C147.268 114.593 145.91 115.123 144.5 115.125Z" fill="#00398E"/>
<path d="M147.312 105.75C147.062 105.75 146.814 105.791 146.576 105.87C146.228 105.398 145.774 105.014 145.25 104.749C144.727 104.484 144.149 104.346 143.562 104.344C142.729 104.341 141.92 104.619 141.263 105.131L139.069 102.938L138.406 103.6L141.242 106.437L141.574 106.105C141.834 105.843 142.144 105.635 142.486 105.494C142.827 105.352 143.193 105.28 143.562 105.281C143.985 105.282 144.401 105.378 144.782 105.562C145.162 105.746 145.496 106.013 145.76 106.343C145.66 106.43 145.567 106.526 145.483 106.629C145.352 106.794 145.185 106.927 144.994 107.018C144.804 107.109 144.596 107.157 144.385 107.156H142.625V108.094H144.385C144.736 108.094 145.083 108.016 145.4 107.864C145.717 107.712 145.995 107.49 146.215 107.215C146.397 106.988 146.645 106.822 146.925 106.742C147.205 106.662 147.503 106.67 147.778 106.767C148.053 106.863 148.291 107.043 148.46 107.28C148.628 107.518 148.719 107.802 148.719 108.094H149.656C149.656 107.472 149.408 106.877 148.969 106.437C148.53 105.998 147.934 105.751 147.312 105.75Z" fill="#00398E"/>
<g filter="url(#filter2_bd)">
<path d="M163 114C163 119.523 167.477 124 173 124H183C188.523 124 193 119.523 193 114V104C193 98.4772 188.523 94 183 94H173C167.477 94 163 98.4772 163 104V114Z" fill="url(#paint2_linear)"/>
<path d="M163.25 114C163.25 119.385 167.615 123.75 173 123.75H183C188.385 123.75 192.75 119.385 192.75 114V104C192.75 98.6152 188.385 94.25 183 94.25H173C167.615 94.25 163.25 98.6152 163.25 104V114Z" stroke="url(#paint3_linear)" stroke-width="0.5"/>
</g>
<path d="M177.283 116.606C176.251 116.606 175.261 116.287 174.529 115.718C173.798 115.15 173.386 114.378 173.383 113.572C173.383 111.667 176.464 101.941 176.595 101.528C176.633 101.408 176.721 101.301 176.846 101.225C176.971 101.149 177.125 101.107 177.283 101.107C177.442 101.107 177.596 101.149 177.72 101.225C177.845 101.301 177.934 101.408 177.972 101.528C178.103 101.941 181.184 111.667 181.184 113.572C181.181 114.378 180.769 115.15 180.037 115.718C179.306 116.287 178.316 116.606 177.283 116.606ZM177.283 104.01C176.247 107.406 174.801 112.404 174.801 113.572C174.801 114.086 175.063 114.579 175.528 114.942C175.994 115.305 176.625 115.51 177.283 115.51C177.942 115.51 178.573 115.305 179.039 114.942C179.504 114.579 179.766 114.086 179.766 113.572C179.766 112.404 178.319 107.406 177.283 104.01Z" fill="#00398E"/>
<path d="M139 76.25C138.382 76.25 137.778 76.0667 137.264 75.7233C136.75 75.38 136.349 74.8919 136.113 74.3209C135.876 73.7499 135.814 73.1215 135.935 72.5153C136.056 71.9092 136.353 71.3523 136.79 70.9153C137.227 70.4783 137.784 70.1806 138.39 70.06C138.997 69.9395 139.625 70.0014 140.196 70.2379C140.767 70.4744 141.255 70.8749 141.598 71.3888C141.942 71.9027 142.125 72.5069 142.125 73.125C142.124 73.9535 141.795 74.7478 141.209 75.3337C140.623 75.9195 139.829 76.2491 139 76.25ZM139 71.25C138.629 71.25 138.267 71.36 137.958 71.566C137.65 71.772 137.41 72.0649 137.268 72.4075C137.126 72.7501 137.089 73.1271 137.161 73.4908C137.233 73.8545 137.412 74.1886 137.674 74.4508C137.936 74.7131 138.27 74.8916 138.634 74.964C138.998 75.0363 139.375 74.9992 139.718 74.8573C140.06 74.7154 140.353 74.475 140.559 74.1667C140.765 73.8584 140.875 73.4958 140.875 73.125C140.874 72.6279 140.677 72.1513 140.325 71.7998C139.974 71.4483 139.497 71.2505 139 71.25Z" fill="#00398E"/>
<path d="M139 83.75L133.728 77.5321C133.698 77.4964 133.51 77.2499 133.51 77.2499C132.61 76.0636 132.123 74.6145 132.125 73.125C132.125 71.3016 132.849 69.553 134.139 68.2636C135.428 66.9743 137.177 66.25 139 66.25C140.823 66.25 142.572 66.9743 143.861 68.2636C145.151 69.553 145.875 71.3016 145.875 73.125C145.877 74.6139 145.391 76.0624 144.491 77.2483L144.49 77.2499C144.49 77.2499 144.302 77.4964 144.274 77.5295L139 83.75ZM134.508 76.4969C134.508 76.4973 134.654 76.6895 134.687 76.7309L139 81.8174L143.319 76.7237C143.346 76.6892 143.493 76.4956 143.493 76.4951C144.229 75.5258 144.626 74.342 144.625 73.125C144.625 71.6332 144.032 70.2024 142.977 69.1475C141.923 68.0926 140.492 67.5 139 67.5C137.508 67.5 136.077 68.0926 135.023 69.1475C133.968 70.2024 133.375 71.6332 133.375 73.125C133.374 74.3426 133.772 75.5271 134.508 76.4969Z" fill="#00398E"/>
<path d="M332.625 81.5H360.375" stroke="#00398E" stroke-width="2" stroke-linecap="round"/>
<path d="M351.125 90.75L360.375 81.5L351.125 72.25" stroke="#00398E" stroke-width="2" stroke-linecap="round"/>
<defs>
<filter id="filter0_d" x="0" y="0" width="412" height="166" filterUnits="userSpaceOnUse" color-interpolation-filters="sRGB">
<feFlood flood-opacity="0" result="BackgroundImageFix"/>
<feColorMatrix in="SourceAlpha" type="matrix" values="0 0 0 0 0 0 0 0 0 0 0 0 0 0 0 0 0 0 127 0" result="hardAlpha"/>
<feMorphology radius="2" operator="dilate" in="SourceAlpha" result="effect1_dropShadow"/>
<feOffset dy="4"/>
<feGaussianBlur stdDeviation="10"/>
<feColorMatrix type="matrix" values="0 0 0 0 0.691667 0 0 0 0 0.691667 0 0 0 0 0.691667 0 0 0 0.25 0"/>
<feBlend mode="normal" in2="BackgroundImageFix" result="effect1_dropShadow"/>
<feBlend mode="normal" in="SourceGraphic" in2="effect1_dropShadow" result="shape"/>
</filter>
<filter id="filter1_bd" x="90" y="54" width="110" height="110" filterUnits="userSpaceOnUse" color-interpolation-filters="sRGB">
<feFlood flood-opacity="0" result="BackgroundImageFix"/>
<feGaussianBlur in="BackgroundImage" stdDeviation="20"/>
<feComposite in2="SourceAlpha" operator="in" result="effect1_backgroundBlur"/>
<feColorMatrix in="SourceAlpha" type="matrix" values="0 0 0 0 0 0 0 0 0 0 0 0 0 0 0 0 0 0 127 0" result="hardAlpha"/>
<feMorphology radius="1" operator="erode" in="SourceAlpha" result="effect2_dropShadow"/>
<feOffset dy="4"/>
<feGaussianBlur stdDeviation="12"/>
<feColorMatrix type="matrix" values="0 0 0 0 0.85 0 0 0 0 0.85 0 0 0 0 0.85 0 0 0 0.25 0"/>
<feBlend mode="normal" in2="effect1_backgroundBlur" result="effect2_dropShadow"/>
<feBlend mode="normal" in="SourceGraphic" in2="effect2_dropShadow" result="shape"/>
</filter>
<filter id="filter2_bd" x="123" y="54" width="110" height="110" filterUnits="userSpaceOnUse" color-interpolation-filters="sRGB">
<feFlood flood-opacity="0" result="BackgroundImageFix"/>
<feGaussianBlur in="BackgroundImage" stdDeviation="20"/>
<feComposite in2="SourceAlpha" operator="in" result="effect1_backgroundBlur"/>
<feColorMatrix in="SourceAlpha" type="matrix" values="0 0 0 0 0 0 0 0 0 0 0 0 0 0 0 0 0 0 127 0" result="hardAlpha"/>
<feMorphology radius="1" operator="erode" in="SourceAlpha" result="effect2_dropShadow"/>
<feOffset dy="4"/>
<feGaussianBlur stdDeviation="12"/>
<feColorMatrix type="matrix" values="0 0 0 0 0.85 0 0 0 0 0.85 0 0 0 0 0.85 0 0 0 0.25 0"/>
<feBlend mode="normal" in2="effect1_backgroundBlur" result="effect2_dropShadow"/>
<feBlend mode="normal" in="SourceGraphic" in2="effect2_dropShadow" result="shape"/>
</filter>
<linearGradient id="paint0_linear" x1="4.5" y1="32" x2="30" y2="-4.5" gradientUnits="userSpaceOnUse">
<stop stop-color="#F0C5CC"/>
<stop offset="1" stop-color="#F0C5CC" stop-opacity="0.1"/>
</linearGradient>
<linearGradient id="paint1_linear" x1="15" y1="0" x2="15" y2="30" gradientUnits="userSpaceOnUse">
<stop stop-color="#F3A779" stop-opacity="0.1"/>
<stop offset="0.348958" stop-color="#F3A779" stop-opacity="0.1"/>
<stop offset="0.677083" stop-color="#F3A779" stop-opacity="0.1"/>
<stop offset="1" stop-color="#F3A779" stop-opacity="0.1"/>
</linearGradient>
<linearGradient id="paint2_linear" x1="197.819" y1="129.326" x2="165.21" y2="95.0507" gradientUnits="userSpaceOnUse">
<stop stop-color="#C0E2E8"/>
<stop offset="1" stop-color="#C0E2E8" stop-opacity="0.1"/>
</linearGradient>
<linearGradient id="paint3_linear" x1="178" y1="124" x2="178" y2="94" gradientUnits="userSpaceOnUse">
<stop stop-color="#C0E2E8" stop-opacity="0.1"/>
<stop offset="0.348958" stop-color="#C0E2E8" stop-opacity="0.1"/>
<stop offset="0.677083" stop-color="#C0E2E8" stop-opacity="0.1"/>
<stop offset="1" stop-color="#C0E2E8" stop-opacity="0.1"/>
</linearGradient>
</defs>
</svg>
