<svg width="412" height="166" viewBox="0 0 412 166" fill="none" xmlns="http://www.w3.org/2000/svg">
<g filter="url(#filter0_d)">
<rect x="22" y="18" width="368" height="122" rx="20" fill="white"/>
<rect x="22.5" y="18.5" width="367" height="121" rx="19.5" stroke="#00398E"/>
</g>
<path d="M130.237 55H132.61L133.674 51.7217H138.358L139.422 55H141.795L137.295 42.3174H134.737L130.237 55ZM135.994 44.5762H136.038L137.787 49.9727H134.245L135.994 44.5762ZM142.938 55H145.126V49.5947C145.126 48.25 145.926 47.3359 147.183 47.3359C148.431 47.3359 149.046 48.083 149.046 49.4102V55H151.234V48.9707C151.234 46.8086 150.065 45.4902 148.018 45.4902C146.603 45.4902 145.653 46.1406 145.17 47.1426H145.126V45.6836H142.938V55ZM157.114 55.1846C159.848 55.1846 161.623 53.3652 161.623 50.3418V50.3242C161.623 47.3184 159.821 45.4902 157.105 45.4902C154.398 45.4902 152.605 47.3359 152.605 50.3242V50.3418C152.605 53.3564 154.372 55.1846 157.114 55.1846ZM157.123 53.418C155.726 53.418 154.838 52.3018 154.838 50.3418V50.3242C154.838 48.3906 155.743 47.2656 157.105 47.2656C158.494 47.2656 159.391 48.3818 159.391 50.3242V50.3418C159.391 52.293 158.503 53.418 157.123 53.418ZM163.029 55H165.218V49.5947C165.218 48.25 166.018 47.3359 167.274 47.3359C168.522 47.3359 169.138 48.083 169.138 49.4102V55H171.326V48.9707C171.326 46.8086 170.157 45.4902 168.109 45.4902C166.694 45.4902 165.745 46.1406 165.262 47.1426H165.218V45.6836H163.029V55ZM174.297 58.0938C176.239 58.0938 177.329 57.3643 178.041 55.3164L181.39 45.6836H179.087L176.898 53.1367H176.837L174.657 45.6836H172.267L175.615 55.0088L175.483 55.3867C175.202 56.1689 174.736 56.4062 173.901 56.4062C173.594 56.4062 173.339 56.3623 173.172 56.3271V57.9971C173.436 58.041 173.875 58.0938 174.297 58.0938ZM182.4 55H184.589V49.2959C184.589 48.1621 185.327 47.3359 186.382 47.3359C187.401 47.3359 188.034 47.9863 188.034 49.0322V55H190.161V49.2432C190.161 48.1182 190.882 47.3359 191.937 47.3359C193.009 47.3359 193.606 47.9951 193.606 49.1465V55H195.795V48.6016C195.795 46.7383 194.591 45.4902 192.754 45.4902C191.409 45.4902 190.302 46.2109 189.854 47.3711H189.801C189.458 46.1758 188.518 45.4902 187.217 45.4902C185.986 45.4902 185.028 46.1582 184.633 47.1777H184.589V45.6836H182.4V55ZM201.675 55.1846C204.408 55.1846 206.184 53.3652 206.184 50.3418V50.3242C206.184 47.3184 204.382 45.4902 201.666 45.4902C198.959 45.4902 197.166 47.3359 197.166 50.3242V50.3418C197.166 53.3564 198.933 55.1846 201.675 55.1846ZM201.684 53.418C200.286 53.418 199.398 52.3018 199.398 50.3418V50.3242C199.398 48.3906 200.304 47.2656 201.666 47.2656C203.055 47.2656 203.951 48.3818 203.951 50.3242V50.3418C203.951 52.293 203.063 53.418 201.684 53.418ZM210.763 55.1846C212.169 55.1846 213.127 54.5342 213.61 53.541H213.654V55H215.843V45.6836H213.654V51.0801C213.654 52.4336 212.854 53.3389 211.598 53.3389C210.35 53.3389 209.734 52.5918 209.734 51.2734V45.6836H207.546V51.7041C207.546 53.8662 208.715 55.1846 210.763 55.1846ZM221.283 55.1846C223.568 55.1846 225.194 54.0068 225.194 52.249V52.2402C225.194 50.8867 224.447 50.1309 222.522 49.7002L220.967 49.3574C220 49.1377 219.64 48.7861 219.64 48.25V48.2412C219.64 47.5557 220.246 47.1074 221.213 47.1074C222.232 47.1074 222.83 47.6523 222.927 48.3994L222.936 48.4697H224.975L224.966 48.373C224.887 46.7646 223.533 45.4902 221.213 45.4902C218.963 45.4902 217.478 46.6416 217.478 48.3467V48.3555C217.478 49.7354 218.374 50.6055 220.158 51.001L221.705 51.3438C222.672 51.5635 222.997 51.8799 222.997 52.4424V52.4512C222.997 53.1367 222.355 53.5674 221.292 53.5674C220.185 53.5674 219.578 53.0928 219.411 52.293L219.394 52.2139H217.24L217.249 52.293C217.442 54.0244 218.84 55.1846 221.283 55.1846ZM234.871 55.2197C237.965 55.2197 239.828 53.7168 239.828 51.3525V51.3438C239.828 49.3662 238.677 48.2939 236.04 47.749L234.669 47.4678C233.14 47.1514 232.445 46.624 232.445 45.7275V45.7188C232.445 44.708 233.368 44.0137 234.854 44.0049C236.277 44.0049 237.253 44.6641 237.402 45.7715L237.42 45.877H239.591L239.582 45.7275C239.45 43.5566 237.64 42.0977 234.871 42.0977C232.138 42.0977 230.178 43.6094 230.169 45.8418V45.8506C230.169 47.7402 231.399 48.9004 233.896 49.4189L235.258 49.7002C236.893 50.043 237.552 50.5527 237.552 51.502V51.5107C237.552 52.6006 236.55 53.3125 234.95 53.3125C233.359 53.3125 232.243 52.6357 232.076 51.5459L232.059 51.4404H229.888L229.896 51.5723C230.046 53.8486 231.962 55.2197 234.871 55.2197ZM241.366 55H243.555V49.6299C243.555 48.2764 244.363 47.3359 245.603 47.3359C246.859 47.3359 247.58 48.1973 247.58 49.6299V55H249.769V49.1992C249.769 46.9492 248.485 45.4902 246.481 45.4902C245.084 45.4902 244.091 46.1318 243.607 47.248H243.555V42.3174H241.366V55ZM255.631 55.1846C258.065 55.1846 259.437 53.7432 259.727 52.3105L259.753 52.2139H257.705L257.688 52.2754C257.477 52.8994 256.765 53.4795 255.675 53.4795C254.251 53.4795 253.354 52.5127 253.319 50.8779H259.841V50.1748C259.841 47.3623 258.188 45.4902 255.525 45.4902C252.862 45.4902 251.148 47.4238 251.148 50.3594V50.3682C251.148 53.3301 252.836 55.1846 255.631 55.1846ZM255.552 47.2041C256.712 47.2041 257.556 47.9424 257.714 49.4189H253.346C253.521 47.9863 254.392 47.2041 255.552 47.2041ZM265.352 55.1846C267.786 55.1846 269.157 53.7432 269.447 52.3105L269.474 52.2139H267.426L267.408 52.2754C267.197 52.8994 266.485 53.4795 265.396 53.4795C263.972 53.4795 263.075 52.5127 263.04 50.8779H269.562V50.1748C269.562 47.3623 267.909 45.4902 265.246 45.4902C262.583 45.4902 260.869 47.4238 260.869 50.3594V50.3682C260.869 53.3301 262.557 55.1846 265.352 55.1846ZM265.272 47.2041C266.433 47.2041 267.276 47.9424 267.435 49.4189H263.066C263.242 47.9863 264.112 47.2041 265.272 47.2041ZM270.977 58.0762H273.165V53.4268H273.209C273.736 54.5166 274.8 55.1846 276.127 55.1846C278.465 55.1846 279.959 53.3389 279.959 50.3506V50.3418C279.959 47.3359 278.465 45.4902 276.101 45.4902C274.765 45.4902 273.745 46.1758 273.209 47.292H273.165V45.6836H270.977V58.0762ZM275.45 53.3389C274.097 53.3389 273.147 52.1699 273.147 50.3506V50.3418C273.147 48.5137 274.097 47.3359 275.45 47.3359C276.848 47.3359 277.727 48.4785 277.727 50.3418V50.3506C277.727 52.1875 276.848 53.3389 275.45 53.3389Z" fill="black"/>
<path d="M161.238 79.1641C163.508 79.1641 164.868 77.2021 164.868 74.0713V74.0576C164.868 70.9268 163.508 68.9717 161.238 68.9717C158.969 68.9717 157.622 70.9268 157.622 74.0576V74.0713C157.622 77.2021 158.969 79.1641 161.238 79.1641ZM161.238 78.0908C159.734 78.0908 158.859 76.5459 158.859 74.0713V74.0576C158.859 71.583 159.734 70.0518 161.238 70.0518C162.742 70.0518 163.631 71.583 163.631 74.0576V74.0713C163.631 76.5459 162.742 78.0908 161.238 78.0908ZM166.721 79.0957C167.158 79.0957 167.5 78.7539 167.5 78.3164C167.5 77.8789 167.158 77.5371 166.721 77.5371C166.283 77.5371 165.941 77.8789 165.941 78.3164C165.941 78.7539 166.283 79.0957 166.721 79.0957ZM170.72 79H171.909V69.1357H170.706L168.081 71.0225V72.2598L170.692 70.4414H170.72V79ZM177.255 79H178.444V74.543C178.444 73.5518 179.128 72.8066 180.071 72.8066C180.953 72.8066 181.527 73.374 181.527 74.2354V79H182.717V74.4814C182.717 73.5107 183.38 72.8066 184.323 72.8066C185.26 72.8066 185.8 73.3877 185.8 74.3652V79H186.989V74.0918C186.989 72.6768 186.08 71.7539 184.672 71.7539C183.674 71.7539 182.84 72.2666 182.443 73.1211H182.416C182.108 72.2529 181.391 71.7539 180.42 71.7539C179.504 71.7539 178.793 72.2256 178.472 72.9297H178.444V71.8906H177.255V79ZM189.177 70.6875C189.594 70.6875 189.922 70.3525 189.922 69.9424C189.922 69.5254 189.594 69.1973 189.177 69.1973C188.767 69.1973 188.432 69.5254 188.432 69.9424C188.432 70.3525 188.767 70.6875 189.177 70.6875ZM188.582 79H189.771V71.8906H188.582V79ZM191.453 79H192.643V69.1357H191.453V79ZM197.175 79.1367C198.727 79.1367 199.889 78.207 200.121 77.0312L200.135 76.9629H198.966L198.945 77.0244C198.74 77.6328 198.104 78.084 197.202 78.084C195.938 78.084 195.131 77.2295 195.104 75.7666H200.224V75.3291C200.224 73.1963 199.041 71.7539 197.1 71.7539C195.158 71.7539 193.9 73.2646 193.9 75.4658V75.4727C193.9 77.708 195.131 79.1367 197.175 79.1367ZM197.093 72.8066C198.132 72.8066 198.897 73.4561 199.014 74.8369H195.124C195.254 73.5107 196.061 72.8066 197.093 72.8066ZM203.949 79.1367C205.535 79.1367 206.711 78.2617 206.711 77.0176V77.0107C206.711 75.999 206.191 75.4316 204.756 75.083L203.628 74.8096C202.842 74.6182 202.521 74.2832 202.521 73.7979V73.791C202.521 73.1621 203.054 72.7451 203.915 72.7451C204.797 72.7451 205.323 73.2031 205.419 73.8936L205.426 73.9414H206.561L206.554 73.8525C206.465 72.6631 205.474 71.7539 203.915 71.7539C202.377 71.7539 201.304 72.6221 201.304 73.8457V73.8525C201.304 74.8779 201.953 75.5 203.293 75.8213L204.421 76.0947C205.228 76.293 205.494 76.5801 205.494 77.0928V77.0996C205.494 77.7422 204.92 78.1455 203.956 78.1455C202.985 78.1455 202.459 77.7285 202.315 77.0176L202.302 76.9492H201.112L201.119 77.0107C201.263 78.2822 202.274 79.1367 203.949 79.1367Z" fill="black"/>
<path d="M78 114C97.33 114 113 98.33 113 79C113 59.67 97.33 44 78 44C58.67 44 43 59.67 43 79C43 98.33 58.67 114 78 114Z" fill="#D8E7A6"/>
<path d="M68.8352 82.6298C68.8361 83.4359 68.5979 84.2242 68.1507 84.8949C67.7035 85.5656 67.0675 86.0886 66.323 86.3977C65.5785 86.7069 64.759 86.7882 63.9683 86.6315C63.1775 86.4748 62.451 86.0871 61.8807 85.5174C61.3103 84.9477 60.9218 84.2216 60.7642 83.4311C60.6066 82.6405 60.687 81.821 60.9953 81.0761C61.3036 80.3313 61.8258 79.6946 62.496 79.2466C63.1662 78.7987 63.9543 78.5596 64.7604 78.5596C65.8403 78.5596 66.876 78.9883 67.6401 79.7514C68.4041 80.5146 68.834 81.5499 68.8352 82.6298Z" fill="#B0BEC5"/>
<path d="M80.0349 86.7046C80.0349 87.5101 79.7962 88.2976 79.3488 88.9675C78.9015 89.6374 78.2656 90.1597 77.5216 90.4684C76.7776 90.777 75.9587 90.8583 75.1685 90.7018C74.3783 90.5453 73.6523 90.1582 73.082 89.5892C72.5118 89.0203 72.123 88.2951 71.9647 87.5052C71.8064 86.7154 71.8858 85.8964 72.1928 85.1516C72.4998 84.4069 73.0206 83.7699 73.6895 83.321C74.3584 82.8721 75.1453 82.6316 75.9508 82.6298C77.0315 82.6298 78.068 83.0591 78.8322 83.8232C79.5963 84.5874 80.0257 85.6239 80.0257 86.7046" fill="#B0BEC5"/>
<path d="M73.9251 85.6847C73.926 86.4908 73.6878 87.2791 73.2406 87.9498C72.7934 88.6205 72.1573 89.1435 71.4128 89.4527C70.6683 89.7618 69.8489 89.8431 69.0581 89.6864C68.2674 89.5297 67.5409 89.142 66.9705 88.5723C66.4002 88.0026 66.0116 87.2766 65.854 86.486C65.6964 85.6954 65.7768 84.8759 66.0851 84.131C66.3934 83.3862 66.9157 82.7495 67.5859 82.3016C68.2561 81.8536 69.0441 81.6145 69.8502 81.6145C70.9301 81.6145 71.9659 82.0432 72.7299 82.8064C73.494 83.5695 73.9238 84.6048 73.9251 85.6847Z" fill="#B0BEC5"/>
<path d="M86.1497 85.6847C86.1506 86.4908 85.9124 87.2791 85.4652 87.9498C85.018 88.6205 84.3819 89.1435 83.6374 89.4527C82.8929 89.7618 82.0735 89.8431 81.2827 89.6864C80.492 89.5297 79.7655 89.142 79.1951 88.5723C78.6248 88.0026 78.2362 87.2766 78.0786 86.486C77.921 85.6954 78.0015 84.8759 78.3097 84.131C78.618 83.3862 79.1403 82.7495 79.8105 82.3016C80.4807 81.8536 81.2687 81.6145 82.0748 81.6145C82.6097 81.6139 83.1395 81.7187 83.6339 81.923C84.1282 82.1273 84.5775 82.427 84.9559 82.805C85.3343 83.183 85.6346 83.6319 85.8394 84.126C86.0442 84.6202 86.1497 85.1498 86.1497 85.6847Z" fill="#B0BEC5"/>
<path d="M64.7601 80.5947C64.761 80.9983 64.6422 81.3931 64.4186 81.7291C64.1951 82.0652 63.8768 82.3274 63.5042 82.4824C63.1316 82.6375 62.7213 82.6786 62.3253 82.6004C61.9293 82.5222 61.5655 82.3283 61.2797 82.0433C60.994 81.7582 60.7993 81.3947 60.7202 80.999C60.6411 80.6032 60.6812 80.1928 60.8355 79.8198C60.9897 79.4468 61.2512 79.128 61.5867 78.9037C61.9222 78.6793 62.3168 78.5596 62.7204 78.5596C62.988 78.559 63.2532 78.6112 63.5006 78.7132C63.7481 78.8152 63.973 78.965 64.1624 79.154C64.3519 79.343 64.5022 79.5676 64.6048 79.8148C64.7073 80.062 64.7601 80.327 64.7601 80.5947Z" fill="#CFD8DC"/>
<path d="M71.8903 81.6145C71.8949 82.4214 71.6598 83.2115 71.2149 83.8847C70.7699 84.5578 70.1352 85.0837 69.391 85.3957C68.6468 85.7076 67.8268 85.7916 67.0348 85.637C66.2429 85.4824 65.5146 85.0962 64.9424 84.5272C64.3702 83.9583 63.9799 83.2323 63.8207 82.4412C63.6616 81.6502 63.7409 80.8297 64.0487 80.0837C64.3564 79.3378 64.8786 78.7 65.5492 78.2512C66.2198 77.8025 67.0086 77.5629 67.8155 77.5629C68.8962 77.5629 69.9327 77.9922 70.6968 78.7564C71.461 79.5205 71.8903 80.557 71.8903 81.6377" fill="#CFD8DC"/>
<path d="M77.9998 82.6298C78.0007 83.4359 77.7625 84.2242 77.3153 84.8949C76.8681 85.5656 76.232 86.0886 75.4875 86.3977C74.743 86.7069 73.9236 86.7882 73.1328 86.6315C72.3421 86.4748 71.6156 86.0871 71.0452 85.5174C70.4749 84.9477 70.0863 84.2216 69.9287 83.4311C69.7711 82.6405 69.8516 81.821 70.1598 81.0761C70.4681 80.3313 70.9904 79.6946 71.6606 79.2466C72.3308 78.7987 73.1188 78.5596 73.9249 78.5596C75.0048 78.5596 76.0406 78.9883 76.8046 79.7514C77.5687 80.5146 77.9985 81.5499 77.9998 82.6298Z" fill="#CFD8DC"/>
<path d="M85.1253 82.6298C85.1262 83.4361 84.8878 84.2246 84.4405 84.8954C83.9931 85.5662 83.3567 86.0892 82.6119 86.3982C81.8672 86.7072 81.0475 86.7883 80.2566 86.6312C79.4657 86.4741 78.7392 86.0859 78.1691 85.5157C77.5989 84.9456 77.2107 84.2191 77.0537 83.4282C76.8966 82.6374 76.9777 81.8177 77.2867 81.0729C77.5956 80.3281 78.1186 79.6918 78.7895 79.2444C79.4603 78.797 80.2487 78.5587 81.0551 78.5596C82.1345 78.5596 83.1698 78.9884 83.9331 79.7517C84.6964 80.515 85.1253 81.5503 85.1253 82.6298Z" fill="#CFD8DC"/>
<path d="M90.2195 79.5749C90.2195 79.5749 90.1453 79.5749 90.0387 79.598C89.8332 78.9986 89.446 78.4782 88.9308 78.1092C88.4156 77.7403 87.7982 77.5412 87.1645 77.5398C86.8258 77.5421 86.4902 77.6032 86.1725 77.7205C86.6422 77.2927 86.9664 76.7286 87.0996 76.1073C86.4932 76.4764 85.9941 76.9979 85.6518 77.6198C85.3095 78.2417 85.136 78.9424 85.1486 79.6521C85.1612 80.3619 85.3594 81.056 85.7235 81.6654C86.0876 82.2748 86.6049 82.7782 87.224 83.1256C87.8431 83.473 88.5423 83.6522 89.2521 83.6455C89.962 83.6387 90.6577 83.4462 91.2701 83.0871C91.8824 82.728 92.3901 82.2149 92.7425 81.5987C93.095 80.9825 93.28 80.2847 93.2791 79.5749C93.2791 79.547 93.2791 79.5192 93.2791 79.4868C91.9347 79.5749 90.683 79.5749 90.2334 79.5749" fill="#CFD8DC"/>
<path d="M89.1999 70.41C89.1981 69.675 88.9277 68.9661 88.4397 68.4166C89.3773 68.4702 90.3035 68.6495 91.1933 68.9497C91.112 68.1928 90.8198 67.4739 90.35 66.8749C89.8802 66.2759 89.2517 65.8209 88.536 65.5615C87.8203 65.3022 87.0461 65.249 86.3017 65.4081C85.5572 65.5671 84.8724 65.9319 84.3251 66.4611C83.7778 66.9902 83.3901 67.6624 83.2061 68.401C83.022 69.1397 83.0491 69.9152 83.2841 70.6393C83.5192 71.3633 83.9528 72.0068 84.5356 72.4965C85.1184 72.9863 85.827 73.3025 86.5807 73.4093C87.3054 73.3088 87.9694 72.95 88.4506 72.3989C88.9319 71.8478 89.1979 71.1416 89.1999 70.41Z" fill="#CFD8DC"/>
<path d="M87.1651 75.5046C87.1678 76.1094 86.991 76.7014 86.657 77.2056C86.323 77.7098 85.8468 78.1035 85.2889 78.3369C84.7309 78.5702 84.1162 78.6327 83.5227 78.5164C82.9292 78.4001 82.3835 78.1103 81.9549 77.6836C81.5263 77.2569 81.2339 76.7126 81.1149 76.1196C80.9959 75.5266 81.0556 74.9117 81.2864 74.3526C81.5172 73.7936 81.9087 73.3156 82.4114 72.9793C82.9141 72.643 83.5053 72.4635 84.1101 72.4635C84.9203 72.4635 85.6974 72.7854 86.2703 73.3583C86.8432 73.9312 87.1651 74.7082 87.1651 75.5185" fill="#CFD8DC"/>
<path d="M90.2198 80.5948C90.2198 81.199 90.0406 81.7896 89.7049 82.292C89.3693 82.7944 88.8921 83.186 88.3339 83.4172C87.7757 83.6484 87.1614 83.7089 86.5688 83.591C85.9762 83.4732 85.4319 83.1822 85.0046 82.7549C84.5774 82.3277 84.2864 81.7834 84.1686 81.1908C84.0507 80.5981 84.1112 79.9839 84.3424 79.4257C84.5736 78.8675 84.9652 78.3903 85.4676 78.0546C85.97 77.719 86.5606 77.5398 87.1648 77.5398C87.9751 77.5398 88.7521 77.8616 89.325 78.4346C89.8979 79.0075 90.2198 79.7845 90.2198 80.5948Z" fill="#CFD8DC"/>
<path d="M89.1998 70.41C89.2016 71.0148 89.0239 71.6065 88.6891 72.1102C88.3543 72.6139 87.8776 73.0069 87.3193 73.2394C86.7609 73.4719 86.1461 73.5335 85.5528 73.4163C84.9595 73.2991 84.4143 73.0084 83.9863 72.581C83.5583 72.1537 83.2668 71.609 83.1487 71.0158C83.0306 70.4226 83.0912 69.8078 83.3228 69.2491C83.5545 68.6904 83.9468 68.213 84.45 67.8775C84.9532 67.542 85.5446 67.3633 86.1494 67.3643C86.9597 67.3643 87.7367 67.6861 88.3096 68.259C88.8825 68.832 89.2044 69.609 89.2044 70.4192" fill="#CFD8DC"/>
<path d="M68.8352 71.4298C68.837 72.2361 68.5996 73.0249 68.153 73.6962C67.7064 74.3675 67.0706 74.8912 66.3262 75.2011C65.5818 75.5109 64.7622 75.5929 63.9711 75.4368C63.1801 75.2806 62.4531 74.8932 61.8823 74.3237C61.3115 73.7542 60.9225 73.0282 60.7645 72.2375C60.6065 71.4468 60.6867 70.627 60.9948 69.8819C61.303 69.1368 61.8253 68.4998 62.4956 68.0516C63.1659 67.6035 63.9541 67.3643 64.7604 67.3643C65.8407 67.3655 66.8764 67.7952 67.6404 68.5591C68.4043 69.323 68.834 70.3588 68.8352 71.4391" fill="#CFD8DC"/>
<path d="M86.1497 66.3397C86.1497 67.1455 85.9108 67.9331 85.4633 68.6031C85.0157 69.2731 84.3796 69.7954 83.6353 70.1039C82.891 70.4125 82.0719 70.4935 81.2816 70.3366C80.4913 70.1798 79.7652 69.7921 79.1951 69.2227C78.6251 68.6533 78.2366 67.9277 78.0789 67.1375C77.9211 66.3474 78.0011 65.5282 78.3089 64.7836C78.6166 64.0389 79.1381 63.4022 79.8076 62.9539C80.4771 62.5056 81.2645 62.2658 82.0702 62.2649C82.6055 62.2643 83.1356 62.3693 83.6303 62.5738C84.125 62.7784 84.5744 63.0785 84.9529 63.457C85.3314 63.8355 85.6315 64.285 85.8361 64.7796C86.0407 65.2743 86.1456 65.8044 86.145 66.3397" fill="#CFD8DC"/>
<path d="M91.2488 82.6298C91.2497 83.4361 91.0114 84.2246 90.564 84.8954C90.1166 85.5662 89.4802 86.0892 88.7355 86.3982C87.9907 86.7072 87.171 86.7883 86.3801 86.6312C85.5893 86.4741 84.8628 86.0859 84.2926 85.5157C83.7225 84.9456 83.3343 84.2191 83.1772 83.4282C83.0201 82.6374 83.1012 81.8177 83.4102 81.0729C83.7192 80.3281 84.2422 79.6918 84.913 79.2444C85.5838 78.797 86.3723 78.5587 87.1786 78.5596C88.2581 78.5596 89.2933 78.9884 90.0567 79.7517C90.82 80.515 91.2488 81.5503 91.2488 82.6298Z" fill="#CFD8DC"/>
<path d="M66.7956 76.5198C66.7993 77.3265 66.5634 78.1161 66.1179 78.7887C65.6724 79.4612 65.0373 79.9864 64.2931 80.2976C63.5488 80.6089 62.7289 80.6923 61.9373 80.5371C61.1456 80.382 60.4178 79.9954 59.8461 79.4262C59.2743 78.8571 58.8844 78.1311 58.7257 77.3401C58.5669 76.5492 58.6465 75.7289 58.9544 74.9833C59.2623 74.2376 59.7845 73.6001 60.455 73.1515C61.1255 72.703 61.9141 72.4635 62.7208 72.4635C63.2557 72.4629 63.7855 72.5677 64.2798 72.772C64.7742 72.9763 65.2234 73.276 65.6019 73.654C65.9803 74.032 66.2805 74.4809 66.4854 74.975C66.6902 75.4692 66.7956 75.9988 66.7956 76.5337" fill="#CFD8DC"/>
<path d="M73.9251 67.3643C73.926 68.1704 73.6878 68.9587 73.2406 69.6294C72.7934 70.3001 72.1573 70.8231 71.4128 71.1322C70.6683 71.4413 69.8489 71.5227 69.0581 71.366C68.2674 71.2093 67.5409 70.8216 66.9705 70.2519C66.4002 69.6822 66.0116 68.9561 65.854 68.1656C65.6964 67.375 65.7768 66.5555 66.0851 65.8106C66.3934 65.0658 66.9157 64.4291 67.5859 63.9811C68.2561 63.5332 69.0441 63.2941 69.8502 63.2941C70.9301 63.2941 71.9659 63.7227 72.7299 64.4859C73.494 65.2491 73.9238 66.2844 73.9251 67.3643Z" fill="#CFD8DC"/>
<path d="M80.0349 65.3198C80.0349 66.1254 79.7962 66.9128 79.3488 67.5827C78.9015 68.2526 78.2656 68.7749 77.5216 69.0836C76.7776 69.3923 75.9587 69.4735 75.1685 69.317C74.3783 69.1606 73.6523 68.7734 73.082 68.2044C72.5118 67.6355 72.123 66.9103 71.9647 66.1205C71.8064 65.3306 71.8858 64.5116 72.1928 63.7669C72.4998 63.0221 73.0206 62.3851 73.6895 61.9362C74.3584 61.4874 75.1453 61.2468 75.9508 61.245C77.0315 61.245 78.068 61.6743 78.8322 62.4385C79.5963 63.2027 80.0257 64.2391 80.0257 65.3198" fill="#CFD8DC"/>
<path d="M63.7407 71.4298V79.5748L73.9255 84.6649L91.2401 77.5397V72.445L72.9103 65.3198" fill="#CFD8DC"/>
<path d="M67.8153 85.6848C67.252 85.6872 66.6945 85.5708 66.1793 85.3432C65.6641 85.1155 65.2027 84.7817 64.8252 84.3636C65.2563 88.2391 65.5252 94.0338 66.0119 96.4398C66.3086 97.9881 66.661 97.914 66.9947 97.914H67.8106C68.455 97.914 68.4272 95.7862 68.4272 95.7862C68.4272 95.7862 68.557 90.9974 69.3033 85.3789C68.8281 85.5801 68.3174 85.6841 67.8014 85.6848" fill="#8D6E63"/>
<path d="M83.521 85.8517C82.8166 86.4021 81.9488 86.7022 81.0548 86.7047C80.4522 86.7043 79.8576 86.5663 79.3164 86.3014C79.5853 90.2464 80.2992 95.1093 80.6376 96.8338C80.8462 97.951 81.1336 97.9 81.4164 97.9H82.4687C83.0018 97.9 83.0389 96.3517 83.0389 96.3517C83.0079 92.846 83.1626 89.341 83.5025 85.8517" fill="#8D6E63"/>
<path d="M98.1099 75.5046C98.1099 75.5046 94.2901 70.4053 92.255 69.3947C91.0614 68.8169 89.7641 68.4843 88.4397 68.4165C88.9278 68.966 89.1982 69.6749 89.2 70.4099C89.1993 71.1827 88.9049 71.9263 88.3764 72.4901C87.8478 73.0539 87.1248 73.3957 86.3536 73.4463C86.6267 73.7366 86.8391 74.0786 86.9781 74.4521C87.1171 74.8257 87.1801 75.2232 87.1632 75.6215C87.1464 76.0197 87.0501 76.4105 86.88 76.771C86.7099 77.1315 86.4695 77.4543 86.1729 77.7205C86.4906 77.6032 86.8262 77.542 87.1649 77.5397C87.7986 77.5412 88.416 77.7402 88.9312 78.1091C89.4464 78.4781 89.8336 78.9985 90.0391 79.598C90.1457 79.598 90.2199 79.5748 90.2199 79.5748C91.2351 79.5748 96.3298 79.5748 97.345 78.5596C99.3848 76.5198 98.1099 75.5046 98.1099 75.5046Z" fill="#795649"/>
<path d="M93.2748 72.4636C93.2748 72.867 93.1552 73.2613 92.931 73.5968C92.7069 73.9322 92.3883 74.1936 92.0156 74.348C91.6429 74.5024 91.2328 74.5428 90.8371 74.4641C90.4414 74.3854 90.078 74.1911 89.7927 73.9059C89.5075 73.6206 89.3132 73.2572 89.2345 72.8615C89.1558 72.4658 89.1962 72.0557 89.3506 71.683C89.505 71.3103 89.7664 70.9917 90.1018 70.7676C90.4373 70.5434 90.8316 70.4238 91.2351 70.4238C91.776 70.4238 92.2948 70.6387 92.6774 71.0213C93.0599 71.4038 93.2748 71.9226 93.2748 72.4636Z" fill="#4E342E"/>
<path d="M90.3216 72.4635C90.236 72.6948 90.2077 72.9434 90.2389 73.188C90.2701 73.4326 90.36 73.6661 90.5009 73.8684C90.6418 74.0708 90.8296 74.2361 91.0482 74.3503C91.2668 74.4645 91.5097 74.5241 91.7564 74.5241C92.003 74.5241 92.2459 74.4645 92.4645 74.3503C92.6831 74.2361 92.8709 74.0708 93.0118 73.8684C93.1527 73.6661 93.2426 73.4326 93.2738 73.188C93.3051 72.9434 93.2767 72.6948 93.1911 72.4635H90.3216Z" fill="#FEC110"/>
<path d="M91.7452 73.4649C91.8789 73.4656 92.0114 73.4397 92.1351 73.389C92.2589 73.3383 92.3713 73.2636 92.4661 73.1692C92.5608 73.0749 92.636 72.9628 92.6874 72.8393C92.7387 72.7158 92.7651 72.5834 92.7651 72.4497H90.73C90.73 72.719 90.8369 72.9772 91.0273 73.1676C91.2177 73.358 91.476 73.4649 91.7452 73.4649Z" fill="black"/>
<path d="M88.1335 86.5748C87.8172 86.6581 87.4917 86.7017 87.1646 86.7046C86.8232 86.7013 86.4836 86.6545 86.154 86.5656L86.0335 86.6026C85.8248 87.5259 85.2981 88.3465 84.5454 88.9205C85.1249 92.3602 85.811 95.0814 86.256 96.7596C86.5805 97.9788 86.8633 97.9185 87.1414 97.9185H88.1984C88.7315 97.9185 88.6295 96.245 88.6295 96.245C88.2897 93.0391 88.1242 89.8172 88.1335 86.5934" fill="#5E4137"/>
<path d="M86.1497 68.3748C86.1497 68.3748 80.8093 68.2125 80.1649 68.8383C79.5205 69.4642 81.4537 71.4112 83.4099 71.4112C85.3662 71.4112 84.8841 70.3913 86.1914 70.3913" fill="#5E4137"/>
<path d="M72.831 89.2821C72.6959 89.1213 72.5749 88.9492 72.4694 88.7676C71.7439 89.4023 70.8141 89.7545 69.8502 89.7596C69.7528 89.7596 69.6647 89.7596 69.5674 89.7318C70.2349 92.6848 71.0323 95.2345 71.4217 96.6855C71.7462 97.9881 72.029 97.9186 72.3071 97.9186H73.5449C73.8601 97.9186 73.7674 96.4027 73.7674 96.4027C73.2179 94.0683 72.9073 91.684 72.8402 89.2868" fill="#5E4137"/>
<path d="M60.6853 80.5947C60.6878 80.4174 60.7143 80.2411 60.7641 80.0709C60.6208 79.9974 60.4829 79.9138 60.3515 79.8206C59.633 81.2345 57.9363 82.3563 57.1714 82.7411C56.9673 82.8451 56.8042 83.0149 56.7083 83.2229C56.6125 83.431 56.5894 83.6653 56.643 83.8881C56.6965 84.1108 56.8235 84.3091 57.0035 84.4508C57.1834 84.5926 57.4059 84.6696 57.635 84.6696C57.7956 84.6699 57.9542 84.6334 58.0986 84.5629C59.0448 84.0502 59.9166 83.4107 60.69 82.6623C60.69 82.6623 60.69 82.6298 60.69 82.6113C60.6909 82.2067 60.755 81.8047 60.88 81.4199C60.7555 81.156 60.6906 80.868 60.69 80.5762" fill="#5E4137"/>
<path d="M85.125 69.3947C85.1241 69.1928 85.1831 68.9952 85.2946 68.8269C85.4061 68.6585 85.5651 68.5271 85.7514 68.4492C85.9376 68.3713 86.1428 68.3504 86.341 68.3893C86.5391 68.4281 86.7213 68.5249 86.8644 68.6673C87.0075 68.8098 87.1051 68.9915 87.1448 69.1894C87.1845 69.3874 87.1646 69.5927 87.0875 69.7793C87.0105 69.9659 86.8798 70.1255 86.712 70.2378C86.5441 70.35 86.3468 70.41 86.1449 70.41C85.8752 70.41 85.6165 70.3032 85.4254 70.1129C85.2342 69.9226 85.1262 69.6644 85.125 69.3947Z" fill="#5E4137"/>
<g filter="url(#filter1_bd)">
<rect width="30" height="30" rx="10" transform="matrix(1 0 0 -1 131 124)" fill="url(#paint0_linear)"/>
<rect x="0.25" y="-0.25" width="29.5" height="29.5" rx="9.75" transform="matrix(1 0 0 -1 131 123.5)" stroke="url(#paint1_linear)" stroke-width="0.5"/>
</g>
<path d="M143.35 109.031L139.6 105.281L138.938 105.944L142.025 109.031H138.938V109.5C138.938 111.24 139.629 112.91 140.86 114.14C142.09 115.371 143.76 116.062 145.5 116.062C147.24 116.062 148.91 115.371 150.14 114.14C151.371 112.91 152.062 111.24 152.062 109.5V109.031H143.35ZM145.5 115.125C144.09 115.123 142.732 114.593 141.694 113.638C140.656 112.683 140.014 111.374 139.894 109.969H151.106C150.986 111.374 150.344 112.683 149.306 113.638C148.268 114.593 146.91 115.123 145.5 115.125Z" fill="#00398E"/>
<path d="M148.312 105.75C148.062 105.75 147.814 105.791 147.576 105.87C147.228 105.398 146.774 105.014 146.25 104.749C145.727 104.484 145.149 104.346 144.562 104.344C143.729 104.341 142.92 104.619 142.263 105.131L140.069 102.938L139.406 103.6L142.242 106.437L142.574 106.105C142.834 105.843 143.144 105.635 143.486 105.494C143.827 105.352 144.193 105.28 144.562 105.281C144.985 105.282 145.401 105.378 145.782 105.562C146.162 105.746 146.496 106.013 146.76 106.343C146.66 106.43 146.567 106.526 146.483 106.629C146.352 106.794 146.185 106.927 145.994 107.018C145.804 107.109 145.596 107.157 145.385 107.156H143.625V108.094H145.385C145.736 108.094 146.083 108.016 146.4 107.864C146.717 107.712 146.995 107.49 147.215 107.215C147.397 106.988 147.645 106.822 147.925 106.742C148.205 106.662 148.503 106.67 148.778 106.767C149.053 106.863 149.291 107.043 149.46 107.28C149.628 107.518 149.719 107.802 149.719 108.094H150.656C150.656 107.472 150.408 106.877 149.969 106.437C149.53 105.998 148.934 105.751 148.312 105.75Z" fill="#00398E"/>
<g filter="url(#filter2_bd)">
<path d="M164 115C164 120.523 168.477 125 174 125H184C189.523 125 194 120.523 194 115V105C194 99.4772 189.523 95 184 95H174C168.477 95 164 99.4772 164 105V115Z" fill="url(#paint2_linear)"/>
<path d="M164.25 115C164.25 120.385 168.615 124.75 174 124.75H184C189.385 124.75 193.75 120.385 193.75 115V105C193.75 99.6152 189.385 95.25 184 95.25H174C168.615 95.25 164.25 99.6152 164.25 105V115Z" stroke="url(#paint3_linear)" stroke-width="0.5"/>
</g>
<g filter="url(#filter3_bd)">
<path d="M197 115C197 120.523 201.477 125 207 125H217C222.523 125 227 120.523 227 115V105C227 99.4772 222.523 95 217 95H207C201.477 95 197 99.4772 197 105V115Z" fill="url(#paint4_linear)"/>
<path d="M197.25 115C197.25 120.385 201.615 124.75 207 124.75H217C222.385 124.75 226.75 120.385 226.75 115V105C226.75 99.6152 222.385 95.25 217 95.25H207C201.615 95.25 197.25 99.6152 197.25 105V115Z" stroke="url(#paint5_linear)" stroke-width="0.5"/>
</g>
<path d="M214.266 119.023H209.761C209.363 119.023 208.981 118.865 208.7 118.583C208.418 118.302 208.26 117.92 208.259 117.522V113.768H204.505C204.107 113.767 203.725 113.609 203.444 113.327C203.162 113.046 203.004 112.664 203.003 112.266V107.761C203.004 107.363 203.162 106.981 203.444 106.699C203.725 106.418 204.107 106.26 204.505 106.259H208.259V102.505C208.26 102.107 208.418 101.725 208.699 101.444C208.981 101.162 209.363 101.004 209.761 101.003H214.266C214.664 101.004 215.046 101.162 215.327 101.444C215.609 101.725 215.767 102.107 215.768 102.505V106.259H219.522C219.92 106.26 220.302 106.418 220.583 106.699C220.865 106.981 221.023 107.363 221.023 107.761V112.266C221.023 112.664 220.865 113.046 220.583 113.327C220.302 113.609 219.92 113.767 219.522 113.768H215.768V117.522C215.767 117.92 215.609 118.301 215.327 118.583C215.046 118.864 214.664 119.023 214.266 119.023ZM204.505 107.761V112.266H209.761V117.522H214.266V112.266H219.522V107.761H214.266V102.505H209.761V107.761H204.505Z" fill="#00398E"/>
<path d="M178.283 117.606C177.251 117.606 176.261 117.287 175.529 116.718C174.798 116.15 174.386 115.378 174.383 114.572C174.383 112.667 177.464 102.941 177.595 102.528C177.633 102.408 177.721 102.301 177.846 102.225C177.971 102.149 178.125 102.107 178.283 102.107C178.442 102.107 178.596 102.149 178.72 102.225C178.845 102.301 178.934 102.408 178.972 102.528C179.103 102.941 182.184 112.667 182.184 114.572C182.181 115.378 181.769 116.15 181.037 116.718C180.306 117.287 179.316 117.606 178.283 117.606ZM178.283 105.01C177.247 108.406 175.801 113.404 175.801 114.572C175.801 115.086 176.063 115.579 176.528 115.942C176.994 116.305 177.625 116.51 178.283 116.51C178.942 116.51 179.573 116.305 180.039 115.942C180.504 115.579 180.766 115.086 180.766 114.572C180.766 113.404 179.319 108.406 178.283 105.01Z" fill="#00398E"/>
<path d="M140 77.25C139.382 77.25 138.778 77.0667 138.264 76.7233C137.75 76.38 137.349 75.8919 137.113 75.3209C136.876 74.7499 136.814 74.1215 136.935 73.5153C137.056 72.9092 137.353 72.3523 137.79 71.9153C138.227 71.4783 138.784 71.1806 139.39 71.06C139.997 70.9395 140.625 71.0014 141.196 71.2379C141.767 71.4744 142.255 71.8749 142.598 72.3888C142.942 72.9027 143.125 73.5069 143.125 74.125C143.124 74.9535 142.795 75.7478 142.209 76.3337C141.623 76.9195 140.829 77.2491 140 77.25ZM140 72.25C139.629 72.25 139.267 72.36 138.958 72.566C138.65 72.772 138.41 73.0649 138.268 73.4075C138.126 73.7501 138.089 74.1271 138.161 74.4908C138.233 74.8545 138.412 75.1886 138.674 75.4508C138.936 75.7131 139.27 75.8916 139.634 75.964C139.998 76.0363 140.375 75.9992 140.718 75.8573C141.06 75.7154 141.353 75.475 141.559 75.1667C141.765 74.8584 141.875 74.4958 141.875 74.125C141.874 73.6279 141.677 73.1513 141.325 72.7998C140.974 72.4483 140.497 72.2505 140 72.25Z" fill="#00398E"/>
<path d="M140 84.75L134.728 78.5321C134.698 78.4964 134.51 78.2499 134.51 78.2499C133.61 77.0636 133.123 75.6145 133.125 74.125C133.125 72.3016 133.849 70.553 135.139 69.2636C136.428 67.9743 138.177 67.25 140 67.25C141.823 67.25 143.572 67.9743 144.861 69.2636C146.151 70.553 146.875 72.3016 146.875 74.125C146.877 75.6139 146.391 77.0624 145.491 78.2483L145.49 78.2499C145.49 78.2499 145.302 78.4964 145.274 78.5295L140 84.75ZM135.508 77.4969C135.508 77.4973 135.654 77.6895 135.687 77.7309L140 82.8174L144.319 77.7237C144.346 77.6892 144.493 77.4956 144.493 77.4951C145.229 76.5258 145.626 75.342 145.625 74.125C145.625 72.6332 145.032 71.2024 143.977 70.1475C142.923 69.0926 141.492 68.5 140 68.5C138.508 68.5 137.077 69.0926 136.023 70.1475C134.968 71.2024 134.375 72.6332 134.375 74.125C134.374 75.3426 134.772 76.5271 135.508 77.4969Z" fill="#00398E"/>
<path d="M333.625 82.5H361.375" stroke="#00398E" stroke-width="2" stroke-linecap="round"/>
<path d="M352.125 91.75L361.375 82.5L352.125 73.25" stroke="#00398E" stroke-width="2" stroke-linecap="round"/>
<defs>
<filter id="filter0_d" x="0" y="0" width="412" height="166" filterUnits="userSpaceOnUse" color-interpolation-filters="sRGB">
<feFlood flood-opacity="0" result="BackgroundImageFix"/>
<feColorMatrix in="SourceAlpha" type="matrix" values="0 0 0 0 0 0 0 0 0 0 0 0 0 0 0 0 0 0 127 0" result="hardAlpha"/>
<feMorphology radius="2" operator="dilate" in="SourceAlpha" result="effect1_dropShadow"/>
<feOffset dy="4"/>
<feGaussianBlur stdDeviation="10"/>
<feColorMatrix type="matrix" values="0 0 0 0 0.691667 0 0 0 0 0.691667 0 0 0 0 0.691667 0 0 0 0.25 0"/>
<feBlend mode="normal" in2="BackgroundImageFix" result="effect1_dropShadow"/>
<feBlend mode="normal" in="SourceGraphic" in2="effect1_dropShadow" result="shape"/>
</filter>
<filter id="filter1_bd" x="91" y="54" width="110" height="110" filterUnits="userSpaceOnUse" color-interpolation-filters="sRGB">
<feFlood flood-opacity="0" result="BackgroundImageFix"/>
<feGaussianBlur in="BackgroundImage" stdDeviation="20"/>
<feComposite in2="SourceAlpha" operator="in" result="effect1_backgroundBlur"/>
<feColorMatrix in="SourceAlpha" type="matrix" values="0 0 0 0 0 0 0 0 0 0 0 0 0 0 0 0 0 0 127 0" result="hardAlpha"/>
<feMorphology radius="1" operator="erode" in="SourceAlpha" result="effect2_dropShadow"/>
<feOffset dy="4"/>
<feGaussianBlur stdDeviation="12"/>
<feColorMatrix type="matrix" values="0 0 0 0 0.85 0 0 0 0 0.85 0 0 0 0 0.85 0 0 0 0.25 0"/>
<feBlend mode="normal" in2="effect1_backgroundBlur" result="effect2_dropShadow"/>
<feBlend mode="normal" in="SourceGraphic" in2="effect2_dropShadow" result="shape"/>
</filter>
<filter id="filter2_bd" x="124" y="55" width="110" height="110" filterUnits="userSpaceOnUse" color-interpolation-filters="sRGB">
<feFlood flood-opacity="0" result="BackgroundImageFix"/>
<feGaussianBlur in="BackgroundImage" stdDeviation="20"/>
<feComposite in2="SourceAlpha" operator="in" result="effect1_backgroundBlur"/>
<feColorMatrix in="SourceAlpha" type="matrix" values="0 0 0 0 0 0 0 0 0 0 0 0 0 0 0 0 0 0 127 0" result="hardAlpha"/>
<feMorphology radius="1" operator="erode" in="SourceAlpha" result="effect2_dropShadow"/>
<feOffset dy="4"/>
<feGaussianBlur stdDeviation="12"/>
<feColorMatrix type="matrix" values="0 0 0 0 0.85 0 0 0 0 0.85 0 0 0 0 0.85 0 0 0 0.25 0"/>
<feBlend mode="normal" in2="effect1_backgroundBlur" result="effect2_dropShadow"/>
<feBlend mode="normal" in="SourceGraphic" in2="effect2_dropShadow" result="shape"/>
</filter>
<filter id="filter3_bd" x="157" y="55" width="110" height="110" filterUnits="userSpaceOnUse" color-interpolation-filters="sRGB">
<feFlood flood-opacity="0" result="BackgroundImageFix"/>
<feGaussianBlur in="BackgroundImage" stdDeviation="20"/>
<feComposite in2="SourceAlpha" operator="in" result="effect1_backgroundBlur"/>
<feColorMatrix in="SourceAlpha" type="matrix" values="0 0 0 0 0 0 0 0 0 0 0 0 0 0 0 0 0 0 127 0" result="hardAlpha"/>
<feMorphology radius="1" operator="erode" in="SourceAlpha" result="effect2_dropShadow"/>
<feOffset dy="4"/>
<feGaussianBlur stdDeviation="12"/>
<feColorMatrix type="matrix" values="0 0 0 0 0.85 0 0 0 0 0.85 0 0 0 0 0.85 0 0 0 0.25 0"/>
<feBlend mode="normal" in2="effect1_backgroundBlur" result="effect2_dropShadow"/>
<feBlend mode="normal" in="SourceGraphic" in2="effect2_dropShadow" result="shape"/>
</filter>
<linearGradient id="paint0_linear" x1="4.5" y1="32" x2="30" y2="-4.5" gradientUnits="userSpaceOnUse">
<stop stop-color="#F0C5CC"/>
<stop offset="1" stop-color="#F0C5CC" stop-opacity="0.1"/>
</linearGradient>
<linearGradient id="paint1_linear" x1="15" y1="0" x2="15" y2="30" gradientUnits="userSpaceOnUse">
<stop stop-color="#F3A779" stop-opacity="0.1"/>
<stop offset="0.348958" stop-color="#F3A779" stop-opacity="0.1"/>
<stop offset="0.677083" stop-color="#F3A779" stop-opacity="0.1"/>
<stop offset="1" stop-color="#F3A779" stop-opacity="0.1"/>
</linearGradient>
<linearGradient id="paint2_linear" x1="198.819" y1="130.326" x2="166.21" y2="96.0507" gradientUnits="userSpaceOnUse">
<stop stop-color="#C0E2E8"/>
<stop offset="1" stop-color="#C0E2E8" stop-opacity="0.1"/>
</linearGradient>
<linearGradient id="paint3_linear" x1="179" y1="125" x2="179" y2="95" gradientUnits="userSpaceOnUse">
<stop stop-color="#C0E2E8" stop-opacity="0.1"/>
<stop offset="0.348958" stop-color="#C0E2E8" stop-opacity="0.1"/>
<stop offset="0.677083" stop-color="#C0E2E8" stop-opacity="0.1"/>
<stop offset="1" stop-color="#C0E2E8" stop-opacity="0.1"/>
</linearGradient>
<linearGradient id="paint4_linear" x1="201.5" y1="95" x2="237.5" y2="125" gradientUnits="userSpaceOnUse">
<stop stop-color="#D9E9A5"/>
<stop offset="1" stop-color="#D9E9A5" stop-opacity="0.1"/>
</linearGradient>
<linearGradient id="paint5_linear" x1="212" y1="125" x2="212" y2="95" gradientUnits="userSpaceOnUse">
<stop stop-color="#D9E9A5" stop-opacity="0.1"/>
<stop offset="0.348958" stop-color="#D9E9A5" stop-opacity="0.1"/>
<stop offset="0.677083" stop-color="#D9E9A5" stop-opacity="0.1"/>
<stop offset="0.921875" stop-color="#D9E9A5" stop-opacity="0.1"/>
</linearGradient>
</defs>
</svg>
