<svg width="412" height="166" viewBox="0 0 412 166" fill="none" xmlns="http://www.w3.org/2000/svg">
<g filter="url(#filter0_d)">
<rect x="22" y="18" width="368" height="122" rx="20" fill="white"/>
<rect x="22.5" y="18.5" width="367" height="121" rx="19.5" stroke="#00398E"/>
</g>
<g filter="url(#filter1_bd)">
<rect width="30" height="30" rx="10" transform="matrix(1 0 0 -1 131 128)" fill="url(#paint0_linear)"/>
<rect x="0.25" y="-0.25" width="29.5" height="29.5" rx="9.75" transform="matrix(1 0 0 -1 131 127.5)" stroke="url(#paint1_linear)" stroke-width="0.5"/>
</g>
<path d="M130.237 55H132.61L133.674 51.7217H138.358L139.422 55H141.795L137.295 42.3174H134.737L130.237 55ZM135.994 44.5762H136.038L137.787 49.9727H134.245L135.994 44.5762ZM142.938 55H145.126V49.5947C145.126 48.25 145.926 47.3359 147.183 47.3359C148.431 47.3359 149.046 48.083 149.046 49.4102V55H151.234V48.9707C151.234 46.8086 150.065 45.4902 148.018 45.4902C146.603 45.4902 145.653 46.1406 145.17 47.1426H145.126V45.6836H142.938V55ZM157.114 55.1846C159.848 55.1846 161.623 53.3652 161.623 50.3418V50.3242C161.623 47.3184 159.821 45.4902 157.105 45.4902C154.398 45.4902 152.605 47.3359 152.605 50.3242V50.3418C152.605 53.3564 154.372 55.1846 157.114 55.1846ZM157.123 53.418C155.726 53.418 154.838 52.3018 154.838 50.3418V50.3242C154.838 48.3906 155.743 47.2656 157.105 47.2656C158.494 47.2656 159.391 48.3818 159.391 50.3242V50.3418C159.391 52.293 158.503 53.418 157.123 53.418ZM163.029 55H165.218V49.5947C165.218 48.25 166.018 47.3359 167.274 47.3359C168.522 47.3359 169.138 48.083 169.138 49.4102V55H171.326V48.9707C171.326 46.8086 170.157 45.4902 168.109 45.4902C166.694 45.4902 165.745 46.1406 165.262 47.1426H165.218V45.6836H163.029V55ZM174.297 58.0938C176.239 58.0938 177.329 57.3643 178.041 55.3164L181.39 45.6836H179.087L176.898 53.1367H176.837L174.657 45.6836H172.267L175.615 55.0088L175.483 55.3867C175.202 56.1689 174.736 56.4062 173.901 56.4062C173.594 56.4062 173.339 56.3623 173.172 56.3271V57.9971C173.436 58.041 173.875 58.0938 174.297 58.0938ZM182.4 55H184.589V49.2959C184.589 48.1621 185.327 47.3359 186.382 47.3359C187.401 47.3359 188.034 47.9863 188.034 49.0322V55H190.161V49.2432C190.161 48.1182 190.882 47.3359 191.937 47.3359C193.009 47.3359 193.606 47.9951 193.606 49.1465V55H195.795V48.6016C195.795 46.7383 194.591 45.4902 192.754 45.4902C191.409 45.4902 190.302 46.2109 189.854 47.3711H189.801C189.458 46.1758 188.518 45.4902 187.217 45.4902C185.986 45.4902 185.028 46.1582 184.633 47.1777H184.589V45.6836H182.4V55ZM201.675 55.1846C204.408 55.1846 206.184 53.3652 206.184 50.3418V50.3242C206.184 47.3184 204.382 45.4902 201.666 45.4902C198.959 45.4902 197.166 47.3359 197.166 50.3242V50.3418C197.166 53.3564 198.933 55.1846 201.675 55.1846ZM201.684 53.418C200.286 53.418 199.398 52.3018 199.398 50.3418V50.3242C199.398 48.3906 200.304 47.2656 201.666 47.2656C203.055 47.2656 203.951 48.3818 203.951 50.3242V50.3418C203.951 52.293 203.063 53.418 201.684 53.418ZM210.763 55.1846C212.169 55.1846 213.127 54.5342 213.61 53.541H213.654V55H215.843V45.6836H213.654V51.0801C213.654 52.4336 212.854 53.3389 211.598 53.3389C210.35 53.3389 209.734 52.5918 209.734 51.2734V45.6836H207.546V51.7041C207.546 53.8662 208.715 55.1846 210.763 55.1846ZM221.283 55.1846C223.568 55.1846 225.194 54.0068 225.194 52.249V52.2402C225.194 50.8867 224.447 50.1309 222.522 49.7002L220.967 49.3574C220 49.1377 219.64 48.7861 219.64 48.25V48.2412C219.64 47.5557 220.246 47.1074 221.213 47.1074C222.232 47.1074 222.83 47.6523 222.927 48.3994L222.936 48.4697H224.975L224.966 48.373C224.887 46.7646 223.533 45.4902 221.213 45.4902C218.963 45.4902 217.478 46.6416 217.478 48.3467V48.3555C217.478 49.7354 218.374 50.6055 220.158 51.001L221.705 51.3438C222.672 51.5635 222.997 51.8799 222.997 52.4424V52.4512C222.997 53.1367 222.355 53.5674 221.292 53.5674C220.185 53.5674 219.578 53.0928 219.411 52.293L219.394 52.2139H217.24L217.249 52.293C217.442 54.0244 218.84 55.1846 221.283 55.1846ZM230.415 55H238.439V53.0928H232.683V42.3174H230.415V55ZM243.792 55.1846C246.525 55.1846 248.301 53.3652 248.301 50.3418V50.3242C248.301 47.3184 246.499 45.4902 243.783 45.4902C241.076 45.4902 239.283 47.3359 239.283 50.3242V50.3418C239.283 53.3564 241.05 55.1846 243.792 55.1846ZM243.801 53.418C242.403 53.418 241.516 52.3018 241.516 50.3418V50.3242C241.516 48.3906 242.421 47.2656 243.783 47.2656C245.172 47.2656 246.068 48.3818 246.068 50.3242V50.3418C246.068 52.293 245.181 53.418 243.801 53.418ZM249.707 55H251.896V49.5947C251.896 48.25 252.695 47.3359 253.952 47.3359C255.2 47.3359 255.815 48.083 255.815 49.4102V55H258.004V48.9707C258.004 46.8086 256.835 45.4902 254.787 45.4902C253.372 45.4902 252.423 46.1406 251.939 47.1426H251.896V45.6836H249.707V55ZM263.963 58.2607C266.661 58.2607 268.357 56.8457 268.357 54.7363V45.6836H266.169V47.2656H266.116C265.589 46.1934 264.569 45.4902 263.251 45.4902C260.896 45.4902 259.375 47.3008 259.375 50.2451V50.2539C259.375 53.1543 260.878 54.9473 263.216 54.9473C264.552 54.9473 265.606 54.3145 266.125 53.3213H266.169V54.666C266.169 55.8525 265.387 56.6084 263.963 56.6084C262.82 56.6084 262.073 56.2041 261.836 55.668L261.81 55.5977H259.656L259.674 55.6768C259.938 57.1357 261.493 58.2607 263.963 58.2607ZM263.901 53.2598C262.495 53.2598 261.607 52.126 261.607 50.2891V50.2803C261.607 48.4697 262.495 47.3359 263.901 47.3359C265.255 47.3359 266.178 48.4873 266.178 50.2891V50.2979C266.178 52.1084 265.264 53.2598 263.901 53.2598ZM270.212 55H272.4V49.6299C272.4 48.2764 273.209 47.3359 274.448 47.3359C275.705 47.3359 276.426 48.1973 276.426 49.6299V55H278.614V49.1992C278.614 46.9492 277.331 45.4902 275.327 45.4902C273.93 45.4902 272.937 46.1318 272.453 47.248H272.4V42.3174H270.212V55ZM284.503 55.1846C287.236 55.1846 289.012 53.3652 289.012 50.3418V50.3242C289.012 47.3184 287.21 45.4902 284.494 45.4902C281.787 45.4902 279.994 47.3359 279.994 50.3242V50.3418C279.994 53.3564 281.761 55.1846 284.503 55.1846ZM284.512 53.418C283.114 53.418 282.227 52.3018 282.227 50.3418V50.3242C282.227 48.3906 283.132 47.2656 284.494 47.2656C285.883 47.2656 286.779 48.3818 286.779 50.3242V50.3418C286.779 52.293 285.892 53.418 284.512 53.418ZM290.418 55H292.606V49.542C292.606 48.2324 293.354 47.4326 294.593 47.4326C294.962 47.4326 295.296 47.4854 295.48 47.5557V45.5781C295.313 45.5342 295.059 45.4902 294.786 45.4902C293.688 45.4902 292.87 46.1494 292.589 47.2393H292.545V45.6836H290.418V55ZM296.605 55H298.794V49.5947C298.794 48.25 299.594 47.3359 300.851 47.3359C302.099 47.3359 302.714 48.083 302.714 49.4102V55H304.902V48.9707C304.902 46.8086 303.733 45.4902 301.686 45.4902C300.271 45.4902 299.321 46.1406 298.838 47.1426H298.794V45.6836H296.605V55Z" fill="black"/>
<path d="M161.238 79.1641C163.508 79.1641 164.868 77.2021 164.868 74.0713V74.0576C164.868 70.9268 163.508 68.9717 161.238 68.9717C158.969 68.9717 157.622 70.9268 157.622 74.0576V74.0713C157.622 77.2021 158.969 79.1641 161.238 79.1641ZM161.238 78.0908C159.734 78.0908 158.859 76.5459 158.859 74.0713V74.0576C158.859 71.583 159.734 70.0518 161.238 70.0518C162.742 70.0518 163.631 71.583 163.631 74.0576V74.0713C163.631 76.5459 162.742 78.0908 161.238 78.0908ZM166.721 79.0957C167.158 79.0957 167.5 78.7539 167.5 78.3164C167.5 77.8789 167.158 77.5371 166.721 77.5371C166.283 77.5371 165.941 77.8789 165.941 78.3164C165.941 78.7539 166.283 79.0957 166.721 79.0957ZM170.72 79H171.909V69.1357H170.706L168.081 71.0225V72.2598L170.692 70.4414H170.72V79ZM177.255 79H178.444V74.543C178.444 73.5518 179.128 72.8066 180.071 72.8066C180.953 72.8066 181.527 73.374 181.527 74.2354V79H182.717V74.4814C182.717 73.5107 183.38 72.8066 184.323 72.8066C185.26 72.8066 185.8 73.3877 185.8 74.3652V79H186.989V74.0918C186.989 72.6768 186.08 71.7539 184.672 71.7539C183.674 71.7539 182.84 72.2666 182.443 73.1211H182.416C182.108 72.2529 181.391 71.7539 180.42 71.7539C179.504 71.7539 178.793 72.2256 178.472 72.9297H178.444V71.8906H177.255V79ZM189.177 70.6875C189.594 70.6875 189.922 70.3525 189.922 69.9424C189.922 69.5254 189.594 69.1973 189.177 69.1973C188.767 69.1973 188.432 69.5254 188.432 69.9424C188.432 70.3525 188.767 70.6875 189.177 70.6875ZM188.582 79H189.771V71.8906H188.582V79ZM191.453 79H192.643V69.1357H191.453V79ZM197.175 79.1367C198.727 79.1367 199.889 78.207 200.121 77.0312L200.135 76.9629H198.966L198.945 77.0244C198.74 77.6328 198.104 78.084 197.202 78.084C195.938 78.084 195.131 77.2295 195.104 75.7666H200.224V75.3291C200.224 73.1963 199.041 71.7539 197.1 71.7539C195.158 71.7539 193.9 73.2646 193.9 75.4658V75.4727C193.9 77.708 195.131 79.1367 197.175 79.1367ZM197.093 72.8066C198.132 72.8066 198.897 73.4561 199.014 74.8369H195.124C195.254 73.5107 196.061 72.8066 197.093 72.8066ZM203.949 79.1367C205.535 79.1367 206.711 78.2617 206.711 77.0176V77.0107C206.711 75.999 206.191 75.4316 204.756 75.083L203.628 74.8096C202.842 74.6182 202.521 74.2832 202.521 73.7979V73.791C202.521 73.1621 203.054 72.7451 203.915 72.7451C204.797 72.7451 205.323 73.2031 205.419 73.8936L205.426 73.9414H206.561L206.554 73.8525C206.465 72.6631 205.474 71.7539 203.915 71.7539C202.377 71.7539 201.304 72.6221 201.304 73.8457V73.8525C201.304 74.8779 201.953 75.5 203.293 75.8213L204.421 76.0947C205.228 76.293 205.494 76.5801 205.494 77.0928V77.0996C205.494 77.7422 204.92 78.1455 203.956 78.1455C202.985 78.1455 202.459 77.7285 202.315 77.0176L202.302 76.9492H201.112L201.119 77.0107C201.263 78.2822 202.274 79.1367 203.949 79.1367Z" fill="black"/>
<path d="M75 112C94.33 112 110 96.33 110 77C110 57.67 94.33 42 75 42C55.67 42 40 57.67 40 77C40 96.33 55.67 112 75 112Z" fill="#C0E2E8"/>
<path d="M71.412 68.8179L62.1682 68.8411H57.5325H55.2146H54.2874C54.3384 68.8411 54.1437 68.8411 54.3987 68.8411C54.3987 68.8411 54.3663 68.8411 54.3477 68.8411C54.1159 68.8411 53.8192 68.8411 53.5365 68.804C51.2186 68.6557 49.1 68.0901 48.1821 67.1722C47.7763 66.7504 47.4885 66.2292 47.3477 65.661L47.0464 64.8636V64.8126H46.4716V64.8404L46.5086 64.9378L46.5828 65.1371L46.7358 65.5404L46.8841 65.1371L46.9629 64.9378L47 64.8404V64.8126H46.4669V64.8636L46.1656 65.6656C45.9848 66.1848 45.6696 66.7411 45.8457 67.3438C46.0219 67.9464 46.5457 68.5583 47.6027 69.0961C48.9482 69.7241 50.3765 70.1565 51.8444 70.3802C52.2802 70.4543 52.7067 70.5239 53.2351 70.5842L54.6259 70.7047L56.8649 70.9087L61.3384 71.312L70.2855 72.1232L71.4676 68.7855" fill="#FFD550"/>
<path d="M78.5837 68.8179L87.8274 68.8411H92.4632H94.7811H95.7082C95.6572 68.8411 95.8519 68.8411 95.597 68.8411C95.597 68.8411 95.6341 68.8411 95.648 68.8411C95.8797 68.8411 96.1811 68.8411 96.4592 68.804C98.7771 68.6557 100.896 68.0901 101.814 67.1722C102.219 66.7495 102.508 66.2288 102.653 65.661L102.954 64.8636V64.8126H103.547V64.8404L103.506 64.9378L103.431 65.1371L103.283 65.5404L103.084 65.1649L103.01 64.9656L102.968 64.8682V64.8404H103.547V64.8914L103.849 65.6934C104.029 66.2126 104.345 66.7689 104.168 67.3716C103.992 67.9742 103.468 68.5861 102.412 69.1239C101.067 69.7513 99.6407 70.1837 98.1744 70.408C97.7387 70.4822 97.3076 70.5517 96.7837 70.612L95.393 70.7325L93.1539 70.9365L88.6804 71.3398L79.7334 72.151L78.5513 68.8133" fill="#FFD550"/>
<path d="M83.8401 76.4902C83.8401 76.4902 83.7706 74.9465 84.5447 74.9465C85.3189 74.9465 85.3143 76.4902 87.6275 76.4902C89.9408 76.4902 92.2633 73.4027 92.2633 72.6332C92.2633 71.8637 89.1759 71.0895 87.6275 71.0895C86.0792 71.0895 84.5447 72.6332 83.7706 72.6332C82.9964 72.6332 79.6308 69.759 79.6308 69.759H71.2169C71.2169 69.759 67.8514 72.6332 67.0772 72.6332C66.303 72.6332 64.7593 71.0895 63.2202 71.0895C61.6812 71.0895 58.5845 71.8637 58.5845 72.6332C58.5845 73.4027 60.9024 76.4902 63.2202 76.4902C65.5381 76.4902 65.5381 74.9465 66.3076 74.9465C67.0772 74.9465 67.0077 76.4902 67.0077 76.4902H83.8401Z" fill="#5E4138"/>
<path d="M82.1577 72.2809H68.714C68.714 72.2809 67.0312 73.9683 67.0312 75.6511C67.0312 79.8557 70.3968 92.4835 71.2405 93.3272C71.5372 93.6239 72.9233 93.7445 74.6061 93.6425C76.2889 93.7445 79.3577 93.6425 79.6544 93.3272C80.4981 92.4835 83.8637 79.0166 83.8637 75.6511C83.8637 73.9683 82.1809 72.2809 82.1809 72.2809" fill="#7A5649"/>
<path d="M77.9485 67.2324H72.9002C71.0459 67.2324 70.3737 68.9152 69.5346 70.598L68.6909 72.2808C68.6909 72.2808 72.9002 75.651 72.9002 84.0649C72.9002 86.5914 71.3518 91.7324 71.2174 92.4834H79.6313C79.4969 91.7324 77.726 86.5914 77.726 84.0649C77.726 75.651 82.1578 72.2808 82.1578 72.2808L81.3187 70.598C80.475 68.9152 79.8075 67.2324 77.9485 67.2324Z" fill="#D0D9DC"/>
<path d="M79.6311 97.1146C79.6317 97.2799 79.5996 97.4438 79.5368 97.5967C79.4739 97.7497 79.3815 97.8887 79.2647 98.0059C79.148 98.123 79.0093 98.216 78.8566 98.2794C78.7039 98.3428 78.5401 98.3755 78.3748 98.3755H72.4873C72.1655 98.356 71.8633 98.2144 71.6423 97.9796C71.4214 97.7449 71.2983 97.4346 71.2983 97.1122C71.2983 96.7898 71.4214 96.4796 71.6423 96.2448C71.8633 96.0101 72.1655 95.8685 72.4873 95.849H78.3748C78.5403 95.8496 78.7042 95.8828 78.8569 95.9468C79.0097 96.0107 79.1484 96.1041 79.265 96.2216C79.3817 96.3391 79.474 96.4785 79.5368 96.6317C79.5997 96.7849 79.6317 96.949 79.6311 97.1146Z" fill="#78909C"/>
<path d="M80.4749 95.849C80.4755 95.96 80.4541 96.07 80.4119 96.1726C80.3697 96.2753 80.3076 96.3685 80.2291 96.447C80.1507 96.5255 80.0574 96.5876 79.9548 96.6297C79.8521 96.6719 79.7421 96.6933 79.6312 96.6927H71.2173C71.1063 96.6933 70.9963 96.6719 70.8937 96.6297C70.791 96.5876 70.6978 96.5255 70.6193 96.447C70.5408 96.3685 70.4787 96.2753 70.4365 96.1726C70.3943 96.07 70.3729 95.96 70.3735 95.849L71.2173 92.4834C71.3332 91.955 71.7179 90.8007 72.9 90.8007H77.9484C79.0934 90.8007 79.4735 91.9318 79.6312 92.4834L80.4749 95.849Z" fill="#B0BEC5"/>
<path d="M77.1234 94.1663C77.1234 93.7027 78.8062 92.4835 78.8062 92.4835V94.1663C78.8148 94.282 78.7994 94.3983 78.761 94.5078C78.7226 94.6174 78.6621 94.7178 78.5831 94.8029C78.5041 94.8879 78.4085 94.9558 78.3021 95.0022C78.1957 95.0486 78.0809 95.0725 77.9648 95.0725C77.8487 95.0725 77.7339 95.0486 77.6275 95.0022C77.5212 94.9558 77.4255 94.8879 77.3465 94.8029C77.2675 94.7178 77.207 94.6174 77.1686 94.5078C77.1302 94.3983 77.1148 94.282 77.1234 94.1663Z" fill="#465B65"/>
<path d="M73.7393 94.1663C73.7393 93.7027 72.0565 92.4835 72.0565 92.4835V94.1663C72.0479 94.282 72.0633 94.3983 72.1017 94.5078C72.1401 94.6174 72.2006 94.7178 72.2796 94.8029C72.3586 94.8879 72.4543 94.9558 72.5606 95.0022C72.667 95.0486 72.7818 95.0725 72.8979 95.0725C73.014 95.0725 73.1288 95.0486 73.2352 95.0022C73.3416 94.9558 73.4372 94.8879 73.5162 94.8029C73.5952 94.7178 73.6557 94.6174 73.6941 94.5078C73.7325 94.3983 73.7479 94.282 73.7393 94.1663Z" fill="#465B65"/>
<path d="M82.1482 78.4046C82.0579 78.147 82.0124 77.8757 82.0138 77.6027C82.0052 77.2701 82.0731 76.9401 82.2121 76.6379C82.3512 76.3357 82.5577 76.0694 82.8158 75.8596C82.3459 76.0274 81.9445 76.3454 81.6738 76.7645C81.4031 77.1835 81.2782 77.6802 81.3184 78.1775C81.3184 78.1775 81.7078 78.2656 82.1621 78.4139" fill="white"/>
<path d="M68.6583 78.4046C68.7502 78.1473 68.7972 77.876 68.7973 77.6027C68.805 77.2698 68.7363 76.9396 68.5965 76.6375C68.4566 76.3353 68.2494 76.0692 67.9907 75.8596C68.461 76.0272 68.863 76.3451 69.1345 76.7641C69.406 77.183 69.5319 77.6798 69.4927 78.1775C69.4927 78.1775 69.1033 78.2656 68.6444 78.4139" fill="white"/>
<path d="M83.8404 75.651C83.4897 75.6634 83.1435 75.7339 82.8159 75.8596C82.5578 76.0694 82.3513 76.3357 82.2122 76.6379C82.0732 76.9401 82.0053 77.2701 82.0139 77.6027C82.0125 77.8757 82.058 78.147 82.1483 78.4046C82.5898 78.5296 83.0035 78.7373 83.3675 79.0166C83.6642 78.7709 85.0503 77.1623 83.8311 75.651" fill="#273339"/>
<path d="M66.9661 75.651C67.3167 75.6634 67.663 75.7339 67.9906 75.8596C68.2459 76.0711 68.4496 76.338 68.5861 76.64C68.7227 76.9421 68.7885 77.2713 68.7786 77.6027C68.7785 77.876 68.7315 78.1472 68.6396 78.4046C68.1995 78.5296 67.7873 78.7373 67.425 79.0166C67.1237 78.7709 65.7376 77.1623 66.9614 75.651" fill="#273339"/>
<g filter="url(#filter2_bd)">
<path d="M165 118C165 123.523 169.477 128 175 128H185C190.523 128 195 123.523 195 118V108C195 102.477 190.523 98 185 98H175C169.477 98 165 102.477 165 108V118Z" fill="url(#paint2_linear)"/>
<path d="M165.25 118C165.25 123.385 169.615 127.75 175 127.75H185C190.385 127.75 194.75 123.385 194.75 118V108C194.75 102.615 190.385 98.25 185 98.25H175C169.615 98.25 165.25 102.615 165.25 108V118Z" stroke="url(#paint3_linear)" stroke-width="0.5"/>
</g>
<path d="M143.35 113.031L139.6 109.281L138.938 109.944L142.025 113.031H138.938V113.5C138.938 115.24 139.629 116.91 140.86 118.14C142.09 119.371 143.76 120.062 145.5 120.062C147.24 120.062 148.91 119.371 150.14 118.14C151.371 116.91 152.062 115.24 152.062 113.5V113.031H143.35ZM145.5 119.125C144.09 119.123 142.732 118.593 141.694 117.638C140.656 116.683 140.014 115.374 139.894 113.969H151.106C150.986 115.374 150.344 116.683 149.306 117.638C148.268 118.593 146.91 119.123 145.5 119.125Z" fill="#00398E"/>
<path d="M148.312 109.75C148.062 109.75 147.814 109.791 147.576 109.87C147.228 109.398 146.774 109.014 146.25 108.749C145.727 108.484 145.149 108.346 144.562 108.344C143.729 108.341 142.92 108.619 142.263 109.131L140.069 106.938L139.406 107.6L142.242 110.437L142.574 110.105C142.834 109.843 143.144 109.635 143.486 109.494C143.827 109.352 144.193 109.28 144.562 109.281C144.985 109.282 145.401 109.378 145.782 109.562C146.162 109.746 146.496 110.013 146.76 110.343C146.66 110.43 146.567 110.526 146.483 110.629C146.352 110.794 146.185 110.927 145.994 111.018C145.804 111.109 145.596 111.157 145.385 111.156H143.625V112.094H145.385C145.736 112.094 146.083 112.016 146.4 111.864C146.717 111.712 146.995 111.49 147.215 111.215C147.397 110.988 147.645 110.822 147.925 110.742C148.205 110.662 148.503 110.67 148.778 110.767C149.053 110.863 149.291 111.043 149.46 111.28C149.628 111.518 149.719 111.802 149.719 112.094H150.656C150.656 111.472 150.408 110.877 149.969 110.437C149.53 109.998 148.934 109.751 148.312 109.75Z" fill="#00398E"/>
<path d="M182.266 122.023H177.761C177.363 122.023 176.981 121.865 176.7 121.583C176.418 121.302 176.26 120.92 176.259 120.522V116.768H172.505C172.107 116.767 171.725 116.609 171.444 116.327C171.162 116.046 171.004 115.664 171.003 115.266V110.761C171.004 110.363 171.162 109.981 171.444 109.699C171.725 109.418 172.107 109.26 172.505 109.259H176.259V105.505C176.26 105.107 176.418 104.725 176.699 104.444C176.981 104.162 177.363 104.004 177.761 104.003H182.266C182.664 104.004 183.046 104.162 183.327 104.444C183.609 104.725 183.767 105.107 183.768 105.505V109.259H187.522C187.92 109.26 188.302 109.418 188.583 109.699C188.865 109.981 189.023 110.363 189.023 110.761V115.266C189.023 115.664 188.865 116.046 188.583 116.327C188.302 116.609 187.92 116.767 187.522 116.768H183.768V120.522C183.767 120.92 183.609 121.301 183.327 121.583C183.046 121.864 182.664 122.023 182.266 122.023ZM172.505 110.761V115.266H177.761V120.522H182.266V115.266H187.522V110.761H182.266V105.505H177.761V110.761H172.505Z" fill="#00398E"/>
<path d="M140 76.25C139.382 76.25 138.778 76.0667 138.264 75.7233C137.75 75.38 137.349 74.8919 137.113 74.3209C136.876 73.7499 136.814 73.1215 136.935 72.5153C137.056 71.9092 137.353 71.3523 137.79 70.9153C138.227 70.4783 138.784 70.1806 139.39 70.06C139.997 69.9395 140.625 70.0014 141.196 70.2379C141.767 70.4744 142.255 70.8749 142.598 71.3888C142.942 71.9027 143.125 72.5069 143.125 73.125C143.124 73.9535 142.795 74.7478 142.209 75.3337C141.623 75.9195 140.829 76.2491 140 76.25ZM140 71.25C139.629 71.25 139.267 71.36 138.958 71.566C138.65 71.772 138.41 72.0649 138.268 72.4075C138.126 72.7501 138.089 73.1271 138.161 73.4908C138.233 73.8545 138.412 74.1886 138.674 74.4508C138.936 74.7131 139.27 74.8916 139.634 74.964C139.998 75.0363 140.375 74.9992 140.718 74.8573C141.06 74.7154 141.353 74.475 141.559 74.1667C141.765 73.8584 141.875 73.4958 141.875 73.125C141.874 72.6279 141.677 72.1513 141.325 71.7998C140.974 71.4483 140.497 71.2505 140 71.25Z" fill="#00398E"/>
<path d="M140 83.75L134.728 77.5321C134.698 77.4964 134.51 77.2499 134.51 77.2499C133.61 76.0636 133.123 74.6145 133.125 73.125C133.125 71.3016 133.849 69.553 135.139 68.2636C136.428 66.9743 138.177 66.25 140 66.25C141.823 66.25 143.572 66.9743 144.861 68.2636C146.151 69.553 146.875 71.3016 146.875 73.125C146.877 74.6139 146.391 76.0624 145.491 77.2483L145.49 77.2499C145.49 77.2499 145.302 77.4964 145.274 77.5295L140 83.75ZM135.508 76.4969C135.508 76.4973 135.654 76.6895 135.687 76.7309L140 81.8174L144.319 76.7237C144.346 76.6892 144.493 76.4956 144.493 76.4951C145.229 75.5258 145.626 74.342 145.625 73.125C145.625 71.6332 145.032 70.2024 143.977 69.1475C142.923 68.0926 141.492 67.5 140 67.5C138.508 67.5 137.077 68.0926 136.023 69.1475C134.968 70.2024 134.375 71.6332 134.375 73.125C134.374 74.3426 134.772 75.5271 135.508 76.4969Z" fill="#00398E"/>
<path d="M333.625 80.5H361.375" stroke="#00398E" stroke-width="2" stroke-linecap="round"/>
<path d="M352.125 89.75L361.375 80.5L352.125 71.25" stroke="#00398E" stroke-width="2" stroke-linecap="round"/>
<defs>
<filter id="filter0_d" x="0" y="0" width="412" height="166" filterUnits="userSpaceOnUse" color-interpolation-filters="sRGB">
<feFlood flood-opacity="0" result="BackgroundImageFix"/>
<feColorMatrix in="SourceAlpha" type="matrix" values="0 0 0 0 0 0 0 0 0 0 0 0 0 0 0 0 0 0 127 0" result="hardAlpha"/>
<feMorphology radius="2" operator="dilate" in="SourceAlpha" result="effect1_dropShadow"/>
<feOffset dy="4"/>
<feGaussianBlur stdDeviation="10"/>
<feColorMatrix type="matrix" values="0 0 0 0 0.691667 0 0 0 0 0.691667 0 0 0 0 0.691667 0 0 0 0.25 0"/>
<feBlend mode="normal" in2="BackgroundImageFix" result="effect1_dropShadow"/>
<feBlend mode="normal" in="SourceGraphic" in2="effect1_dropShadow" result="shape"/>
</filter>
<filter id="filter1_bd" x="91" y="58" width="110" height="110" filterUnits="userSpaceOnUse" color-interpolation-filters="sRGB">
<feFlood flood-opacity="0" result="BackgroundImageFix"/>
<feGaussianBlur in="BackgroundImage" stdDeviation="20"/>
<feComposite in2="SourceAlpha" operator="in" result="effect1_backgroundBlur"/>
<feColorMatrix in="SourceAlpha" type="matrix" values="0 0 0 0 0 0 0 0 0 0 0 0 0 0 0 0 0 0 127 0" result="hardAlpha"/>
<feMorphology radius="1" operator="erode" in="SourceAlpha" result="effect2_dropShadow"/>
<feOffset dy="4"/>
<feGaussianBlur stdDeviation="12"/>
<feColorMatrix type="matrix" values="0 0 0 0 0.85 0 0 0 0 0.85 0 0 0 0 0.85 0 0 0 0.25 0"/>
<feBlend mode="normal" in2="effect1_backgroundBlur" result="effect2_dropShadow"/>
<feBlend mode="normal" in="SourceGraphic" in2="effect2_dropShadow" result="shape"/>
</filter>
<filter id="filter2_bd" x="125" y="58" width="110" height="110" filterUnits="userSpaceOnUse" color-interpolation-filters="sRGB">
<feFlood flood-opacity="0" result="BackgroundImageFix"/>
<feGaussianBlur in="BackgroundImage" stdDeviation="20"/>
<feComposite in2="SourceAlpha" operator="in" result="effect1_backgroundBlur"/>
<feColorMatrix in="SourceAlpha" type="matrix" values="0 0 0 0 0 0 0 0 0 0 0 0 0 0 0 0 0 0 127 0" result="hardAlpha"/>
<feMorphology radius="1" operator="erode" in="SourceAlpha" result="effect2_dropShadow"/>
<feOffset dy="4"/>
<feGaussianBlur stdDeviation="12"/>
<feColorMatrix type="matrix" values="0 0 0 0 0.85 0 0 0 0 0.85 0 0 0 0 0.85 0 0 0 0.25 0"/>
<feBlend mode="normal" in2="effect1_backgroundBlur" result="effect2_dropShadow"/>
<feBlend mode="normal" in="SourceGraphic" in2="effect2_dropShadow" result="shape"/>
</filter>
<linearGradient id="paint0_linear" x1="4.5" y1="32" x2="30" y2="-4.5" gradientUnits="userSpaceOnUse">
<stop stop-color="#F0C5CC"/>
<stop offset="1" stop-color="#F0C5CC" stop-opacity="0.1"/>
</linearGradient>
<linearGradient id="paint1_linear" x1="15" y1="0" x2="15" y2="30" gradientUnits="userSpaceOnUse">
<stop stop-color="#F3A779" stop-opacity="0.1"/>
<stop offset="0.348958" stop-color="#F3A779" stop-opacity="0.1"/>
<stop offset="0.677083" stop-color="#F3A779" stop-opacity="0.1"/>
<stop offset="1" stop-color="#F3A779" stop-opacity="0.1"/>
</linearGradient>
<linearGradient id="paint2_linear" x1="169.5" y1="98" x2="205.5" y2="128" gradientUnits="userSpaceOnUse">
<stop stop-color="#D9E9A5"/>
<stop offset="1" stop-color="#D9E9A5" stop-opacity="0.1"/>
</linearGradient>
<linearGradient id="paint3_linear" x1="180" y1="128" x2="180" y2="98" gradientUnits="userSpaceOnUse">
<stop stop-color="#D9E9A5" stop-opacity="0.1"/>
<stop offset="0.348958" stop-color="#D9E9A5" stop-opacity="0.1"/>
<stop offset="0.677083" stop-color="#D9E9A5" stop-opacity="0.1"/>
<stop offset="0.921875" stop-color="#D9E9A5" stop-opacity="0.1"/>
</linearGradient>
</defs>
</svg>
