<svg width="169" height="50" viewBox="0 0 169 50" fill="none" xmlns="http://www.w3.org/2000/svg">
<path d="M0 5C0 2.23858 2.23858 0 5 0H164C166.761 0 169 2.23858 169 5V45C169 47.7614 166.761 50 164 50H5C2.23857 50 0 47.7614 0 45V5Z" fill="white"/>
<path d="M85.2962 27.1888C82.3518 27.1888 79.952 29.4251 79.952 32.5051C79.952 35.5663 82.3518 37.8213 85.2962 37.8213C88.2418 37.8213 90.6416 35.5663 90.6416 32.5051C90.6403 29.4251 88.2405 27.1888 85.2962 27.1888ZM85.2962 35.7288C83.6825 35.7288 82.2917 34.4001 82.2917 32.5063C82.2917 30.5926 83.6838 29.2838 85.2962 29.2838C86.9098 29.2838 88.3006 30.5926 88.3006 32.5063C88.3006 34.3988 86.9098 35.7288 85.2962 35.7288ZM73.6364 27.1888C70.692 27.1888 68.2923 29.4251 68.2923 32.5051C68.2923 35.5663 70.692 37.8213 73.6364 37.8213C76.582 37.8213 78.9818 35.5663 78.9818 32.5051C78.9818 29.4251 76.582 27.1888 73.6364 27.1888ZM73.6364 35.7288C72.0228 35.7288 70.632 34.4001 70.632 32.5063C70.632 30.5926 72.024 29.2838 73.6364 29.2838C75.25 29.2838 76.6409 30.5926 76.6409 32.5063C76.6421 34.3988 75.25 35.7288 73.6364 35.7288ZM59.7684 28.8213V31.0763H65.1739C65.0124 32.3451 64.5893 33.2713 63.9433 33.9151C63.1572 34.7001 61.9266 35.5663 59.7684 35.5663C56.441 35.5663 53.8396 32.8876 53.8396 29.5651C53.8396 26.2426 56.441 23.5638 59.7684 23.5638C61.5635 23.5638 62.8742 24.2688 63.8419 25.1751L65.4355 23.5838C64.0835 22.2951 62.2896 21.3088 59.7684 21.3088C55.2104 21.3088 51.3785 25.0138 51.3785 29.5651C51.3785 34.1163 55.2104 37.8213 59.7684 37.8213C62.2283 37.8213 64.0848 37.0151 65.5357 35.5051C67.0279 34.0151 67.4923 31.9201 67.4923 30.2288C67.4923 29.7063 67.4523 29.2226 67.3709 28.8201H59.7684V28.8213ZM116.487 30.5726C116.044 29.3851 114.692 27.1888 111.929 27.1888C109.187 27.1888 106.907 29.3438 106.907 32.5051C106.907 35.4851 109.166 37.8213 112.191 37.8213C114.631 37.8213 116.043 36.3313 116.629 35.4651L114.814 34.2563C114.209 35.1426 113.381 35.7263 112.191 35.7263C111.002 35.7263 110.154 35.1826 109.61 34.1151L116.729 31.1751L116.487 30.5726ZM109.227 32.3451C109.166 30.2901 110.82 29.2438 112.011 29.2438C112.938 29.2438 113.724 29.7076 113.987 30.3713L109.227 32.3451ZM103.439 37.5001H105.778V21.8738H103.439V37.5001ZM99.6061 28.3776H99.526C99.0014 27.7526 97.9924 27.1888 96.7231 27.1888C94.0604 27.1888 91.6205 29.5251 91.6205 32.5263C91.6205 35.5063 94.0604 37.8226 96.7231 37.8226C97.9937 37.8226 99.0014 37.2588 99.526 36.6151H99.6061V37.3801C99.6061 39.4138 98.517 40.5013 96.7631 40.5013C95.331 40.5013 94.4434 39.4751 94.0804 38.6088L92.0436 39.4551C92.6283 40.8638 94.1805 42.5963 96.7631 42.5963C99.5059 42.5963 101.826 40.9851 101.826 37.0576V27.5126H99.6073V28.3776H99.6061ZM96.9246 35.7288C95.311 35.7288 93.9602 34.3788 93.9602 32.5263C93.9602 30.6526 95.311 29.2838 96.9246 29.2838C98.517 29.2838 99.7676 30.6526 99.7676 32.5263C99.7676 34.3788 98.517 35.7288 96.9246 35.7288ZM127.446 21.8738H121.849V37.5001H124.184V31.5801H127.445C130.034 31.5801 132.58 29.7088 132.58 26.7276C132.58 23.7463 130.035 21.8738 127.446 21.8738ZM127.506 29.4051H124.184V24.0488H127.506C129.252 24.0488 130.244 25.4926 130.244 26.7276C130.244 27.9376 129.252 29.4051 127.506 29.4051ZM141.942 27.1613C140.251 27.1613 138.5 27.9051 137.775 29.5538L139.848 30.4176C140.291 29.5538 141.117 29.2713 141.983 29.2713C143.191 29.2713 144.419 29.9951 144.439 31.2813V31.4426C144.016 31.2013 143.109 30.8401 142.003 30.8401C139.768 30.8401 137.492 32.0663 137.492 34.3576C137.492 36.4488 139.325 37.7951 141.378 37.7951C142.948 37.7951 143.814 37.0913 144.357 36.2663H144.437V37.4726H146.693V31.4813C146.694 28.7088 144.619 27.1613 141.942 27.1613ZM141.66 35.7251C140.896 35.7251 139.828 35.3426 139.828 34.3976C139.828 33.1913 141.158 32.7288 142.305 32.7288C143.331 32.7288 143.815 32.9501 144.439 33.2513C144.257 34.7001 143.009 35.7251 141.66 35.7251ZM154.908 27.5026L152.23 34.2776H152.15L149.371 27.5026H146.855L151.022 36.9713L148.646 42.2388H151.082L157.505 27.5026H154.908ZM133.869 37.5001H136.204V21.8738H133.869V37.5001Z" fill="black"/>
<path d="M59.3604 12.8037C59.3604 13.8512 59.0499 14.685 58.4277 15.3075C57.7217 16.0475 56.8003 16.4175 55.6687 16.4175C54.5846 16.4175 53.6619 16.0425 52.9046 15.2925C52.1459 14.5412 51.7666 13.6112 51.7666 12.5012C51.7666 11.39 52.1459 10.46 52.9046 9.70999C53.6619 8.95874 54.5846 8.58374 55.6687 8.58374C56.207 8.58374 56.7215 8.68874 57.2097 8.89749C57.6992 9.10749 58.091 9.38624 58.3839 9.73499L57.7242 10.395C57.2272 9.80124 56.5424 9.50499 55.6674 9.50499C54.8762 9.50499 54.1927 9.78249 53.6156 10.3375C53.0385 10.8925 52.7506 11.6137 52.7506 12.5C52.7506 13.3862 53.0385 14.1075 53.6156 14.6625C54.1927 15.2175 54.8762 15.495 55.6674 15.495C56.5061 15.495 57.2059 15.2162 57.7655 14.6575C58.1285 14.2937 58.3389 13.7875 58.3952 13.1387H55.6674V12.2375H59.3065C59.3441 12.4337 59.3604 12.6225 59.3604 12.8037Z" fill="black"/>
<path d="M65.1315 9.67131H61.7115V12.0488H64.796V12.9501H61.7115V15.3276H65.1315V16.2501H60.7463V8.75006H65.1315V9.67131Z" fill="black"/>
<path d="M69.2011 16.2501H68.236V9.67131H66.1379V8.75006H71.2993V9.67131H69.2011V16.2501Z" fill="black"/>
<path d="M75.0335 16.2501V8.75006H75.9986V16.2501H75.0335Z" fill="black"/>
<path d="M80.2789 16.2501H79.3138V9.67131H77.2157V8.75006H82.377V9.67131H80.2789V16.2501Z" fill="black"/>
<path d="M92.1475 15.2813C91.4089 16.0388 90.4913 16.4175 89.3934 16.4175C88.2955 16.4175 87.3779 16.0388 86.6406 15.2813C85.902 14.5238 85.5339 13.5963 85.5339 12.5C85.5339 11.4038 85.902 10.4763 86.6406 9.7188C87.3779 8.9613 88.2955 8.5813 89.3934 8.5813C90.485 8.5813 91.4014 8.96255 92.1425 9.7238C92.8836 10.485 93.2541 11.41 93.2541 12.5C93.2541 13.5963 92.8848 14.5238 92.1475 15.2813ZM87.3529 14.6525C87.9087 15.215 88.5884 15.495 89.3934 15.495C90.1983 15.495 90.8793 15.2138 91.4339 14.6525C91.9897 14.09 92.2689 13.3725 92.2689 12.5C92.2689 11.6275 91.9897 10.91 91.4339 10.3475C90.8793 9.78505 90.1983 9.50505 89.3934 9.50505C88.5884 9.50505 87.9087 9.7863 87.3529 10.3475C86.7983 10.91 86.5191 11.6275 86.5191 12.5C86.5191 13.3725 86.7983 14.09 87.3529 14.6525Z" fill="black"/>
<path d="M94.6086 16.2501V8.75006H95.7829L99.4333 14.5838H99.4746L99.4333 13.1388V8.75006H100.398V16.2501H99.3907L95.5713 10.1326H95.53L95.5713 11.5776V16.2501H94.6086Z" fill="black"/>
<path d="M59.3604 12.8037C59.3604 13.8512 59.0499 14.685 58.4277 15.3075C57.7217 16.0475 56.8003 16.4175 55.6687 16.4175C54.5846 16.4175 53.6619 16.0425 52.9046 15.2925C52.1459 14.5412 51.7666 13.6112 51.7666 12.5012C51.7666 11.39 52.1459 10.46 52.9046 9.70999C53.6619 8.95874 54.5846 8.58374 55.6687 8.58374C56.207 8.58374 56.7215 8.68874 57.2097 8.89749C57.6992 9.10749 58.091 9.38624 58.3839 9.73499L57.7242 10.395C57.2272 9.80124 56.5424 9.50499 55.6674 9.50499C54.8762 9.50499 54.1927 9.78249 53.6156 10.3375C53.0385 10.8925 52.7506 11.6137 52.7506 12.5C52.7506 13.3862 53.0385 14.1075 53.6156 14.6625C54.1927 15.2175 54.8762 15.495 55.6674 15.495C56.5061 15.495 57.2059 15.2162 57.7655 14.6575C58.1285 14.2937 58.3389 13.7875 58.3952 13.1387H55.6674V12.2375H59.3065C59.3441 12.4337 59.3604 12.6225 59.3604 12.8037Z" stroke="black" stroke-width="0.2" stroke-miterlimit="10"/>
<path d="M65.1315 9.67131H61.7115V12.0488H64.796V12.9501H61.7115V15.3276H65.1315V16.2501H60.7463V8.75006H65.1315V9.67131Z" stroke="black" stroke-width="0.2" stroke-miterlimit="10"/>
<path d="M69.2011 16.2501H68.236V9.67131H66.1379V8.75006H71.2993V9.67131H69.2011V16.2501Z" stroke="black" stroke-width="0.2" stroke-miterlimit="10"/>
<path d="M75.0335 16.2501V8.75006H75.9986V16.2501H75.0335Z" stroke="black" stroke-width="0.2" stroke-miterlimit="10"/>
<path d="M80.2789 16.2501H79.3138V9.67131H77.2157V8.75006H82.377V9.67131H80.2789V16.2501Z" stroke="black" stroke-width="0.2" stroke-miterlimit="10"/>
<path d="M92.1475 15.2813C91.4089 16.0388 90.4913 16.4175 89.3934 16.4175C88.2955 16.4175 87.3779 16.0388 86.6406 15.2813C85.902 14.5238 85.5339 13.5963 85.5339 12.5C85.5339 11.4038 85.902 10.4763 86.6406 9.7188C87.3779 8.9613 88.2955 8.5813 89.3934 8.5813C90.485 8.5813 91.4014 8.96255 92.1425 9.7238C92.8836 10.485 93.2541 11.41 93.2541 12.5C93.2541 13.5963 92.8848 14.5238 92.1475 15.2813ZM87.3529 14.6525C87.9087 15.215 88.5884 15.495 89.3934 15.495C90.1983 15.495 90.8793 15.2138 91.4339 14.6525C91.9897 14.09 92.2689 13.3725 92.2689 12.5C92.2689 11.6275 91.9897 10.91 91.4339 10.3475C90.8793 9.78505 90.1983 9.50505 89.3934 9.50505C88.5884 9.50505 87.9087 9.7863 87.3529 10.3475C86.7983 10.91 86.5191 11.6275 86.5191 12.5C86.5191 13.3725 86.7983 14.09 87.3529 14.6525Z" stroke="black" stroke-width="0.2" stroke-miterlimit="10"/>
<path d="M94.6086 16.2501V8.75006H95.7829L99.4333 14.5838H99.4746L99.4333 13.1388V8.75006H100.398V16.2501H99.3907L95.5713 10.1326H95.53L95.5713 11.5776V16.2501H94.6086Z" stroke="black" stroke-width="0.2" stroke-miterlimit="10"/>
<path fill-rule="evenodd" clip-rule="evenodd" d="M12.7718 9.8382C12.5877 10.1927 12.4847 10.6436 12.4847 11.1787V38.8237C12.4847 39.3601 12.5878 39.8108 12.7721 40.1652L27.9568 25.0008L12.7718 9.8382ZM13.4646 40.8869C14.0366 41.192 14.8132 41.1402 15.6657 40.6575L33.5015 30.5373L28.6644 25.7073L13.4646 40.8869ZM34.4048 30.026L40.078 26.8075C41.8269 25.8137 41.8269 24.19 40.078 23.1975L34.4023 19.9771L29.372 25.0007L34.4048 30.026ZM33.4998 19.4651L15.6657 9.34624C14.8131 8.8625 14.0365 8.81131 13.4645 9.11678L28.6644 24.2941L33.4998 19.4651Z" fill="black"/>
<path d="M5 1H164V-1H5V1ZM168 5V45H170V5H168ZM164 49H5V51H164V49ZM1 45V5H-1V45H1ZM5 49C2.79086 49 1 47.2091 1 45H-1C-1 48.3137 1.68629 51 5 51V49ZM168 45C168 47.2091 166.209 49 164 49V51C167.314 51 170 48.3137 170 45H168ZM164 1C166.209 1 168 2.79086 168 5H170C170 1.68629 167.314 -1 164 -1V1ZM5 -1C1.68629 -1 -1 1.68629 -1 5H1C1 2.79086 2.79086 1 5 1V-1Z" fill="black"/>
</svg>
