<svg width="150" height="50" viewBox="0 0 150 50" fill="none" xmlns="http://www.w3.org/2000/svg">
<path d="M0 10.5C0 7.23841 0 5.60761 0.532843 4.32122C1.2433 2.60602 2.60602 1.2433 4.32122 0.532843C5.60761 0 7.23841 0 10.5 0H139.5C142.762 0 144.392 0 145.679 0.532843C147.394 1.2433 148.757 2.60602 149.467 4.32122C150 5.60761 150 7.23841 150 10.5V39.5C150 42.7616 150 44.3924 149.467 45.6788C148.757 47.394 147.394 48.7567 145.679 49.4672C144.392 50 142.762 50 139.5 50H10.5C7.23841 50 5.60761 50 4.32122 49.4672C2.60602 48.7567 1.2433 47.394 0.532843 45.6788C0 44.3924 0 42.7616 0 39.5V10.5Z" fill="white"/>
<path d="M101.907 24.0012V26.865H100.112V28.743H101.907V35.1242C101.907 37.3032 102.893 38.1748 105.373 38.1748C105.809 38.1748 106.224 38.1229 106.587 38.0606V36.2033C106.276 36.2345 106.078 36.2552 105.736 36.2552C104.626 36.2552 104.138 35.7364 104.138 34.5536V28.743H106.587V26.865H104.138V24.0012H101.907Z" fill="black"/>
<path d="M112.904 38.3304C116.204 38.3304 118.227 36.1203 118.227 32.4576C118.227 28.8156 116.193 26.5952 112.904 26.5952C109.605 26.5952 107.571 28.8156 107.571 32.4576C107.571 36.1203 109.594 38.3304 112.904 38.3304ZM112.904 36.3486C110.964 36.3486 109.874 34.9271 109.874 32.4576C109.874 30.0089 110.964 28.577 112.904 28.577C114.834 28.577 115.934 30.0089 115.934 32.4576C115.934 34.9167 114.834 36.3486 112.904 36.3486Z" fill="black"/>
<path d="M119.958 38.1125H122.189V31.4408C122.189 29.8532 123.382 28.7845 125.074 28.7845C125.468 28.7845 126.132 28.8572 126.319 28.9194V26.7197C126.08 26.6574 125.655 26.6263 125.323 26.6263C123.849 26.6263 122.594 27.4356 122.272 28.5459H122.106V26.8131H119.958V38.1125Z" fill="black"/>
<path d="M131.858 28.494C133.508 28.494 134.587 29.6457 134.639 31.42H128.932C129.056 29.6561 130.208 28.494 131.858 28.494ZM134.628 35.062C134.213 35.9439 133.29 36.4316 131.941 36.4316C130.156 36.4316 129.004 35.1761 128.932 33.1943V33.0698H136.911V32.2916C136.911 28.743 135.012 26.5952 131.868 26.5952C128.683 26.5952 126.659 28.8883 126.659 32.4991C126.659 36.11 128.641 38.3304 131.879 38.3304C134.462 38.3304 136.268 37.0853 136.776 35.062H134.628Z" fill="black"/>
<path d="M87.2779 33.9398C87.4499 36.7145 89.7621 38.4889 93.2035 38.4889C96.8815 38.4889 99.183 36.6284 99.183 33.6602C99.183 31.3265 97.871 30.036 94.6877 29.2939L92.9777 28.8745C90.9559 28.4013 90.1385 27.7668 90.1385 26.6591C90.1385 25.261 91.4076 24.3469 93.3111 24.3469C95.1178 24.3469 96.3653 25.2395 96.5912 26.6698H98.9356C98.7958 24.0565 96.4944 22.2175 93.3434 22.2175C89.9557 22.2175 87.6973 24.0565 87.6973 26.8204C87.6973 29.1003 88.9771 30.4554 91.784 31.1114L93.7843 31.5954C95.8384 32.0793 96.7417 32.7891 96.7417 33.9721C96.7417 35.3486 95.3222 36.3488 93.3864 36.3488C91.3108 36.3488 89.8697 35.4132 89.6653 33.9398H87.2779Z" fill="black"/>
<path d="M64.1687 26.6263C62.6331 26.6263 61.3049 27.3941 60.6201 28.6808H60.4541V26.8131H58.3063V41.8686H60.5371V36.4005H60.7135C61.3049 37.5937 62.5812 38.2993 64.1895 38.2993C67.0429 38.2993 68.8586 36.0477 68.8586 32.4576C68.8586 28.8675 67.0429 26.6263 64.1687 26.6263ZM63.5358 36.2967C61.6681 36.2967 60.4956 34.8233 60.4956 32.468C60.4956 30.1023 61.6681 28.6289 63.5461 28.6289C65.4346 28.6289 66.5656 30.0711 66.5656 32.4576C66.5656 34.8545 65.4346 36.2967 63.5358 36.2967Z" fill="black"/>
<path d="M76.6647 26.6263C75.1291 26.6263 73.8009 27.3941 73.1161 28.6808H72.9501V26.8131H70.8023V41.8686H73.0331V36.4005H73.2095C73.8009 37.5937 75.0772 38.2993 76.6855 38.2993C79.5388 38.2993 81.3546 36.0477 81.3546 32.4576C81.3546 28.8675 79.5388 26.6263 76.6647 26.6263ZM76.0318 36.2967C74.1641 36.2967 72.9916 34.8233 72.9916 32.468C72.9916 30.1023 74.1641 28.6289 76.0421 28.6289C77.9306 28.6289 79.0616 30.0711 79.0616 32.4576C79.0616 34.8545 77.9306 36.2967 76.0318 36.2967Z" fill="black"/>
<path d="M54.3038 38.1125H56.8633L51.2603 22.5939H48.6685L43.0654 38.1125H45.5389L46.9693 33.9936H52.8842L54.3038 38.1125ZM49.8407 25.4116H50.0235L52.2712 31.9718H47.5823L49.8407 25.4116Z" fill="black"/>
<path d="M44.5639 10.8886V18.3749H47.2668C49.4977 18.3749 50.7895 17.0001 50.7895 14.6084C50.7895 12.2531 49.4873 10.8886 47.2668 10.8886H44.5639ZM45.726 11.947H47.1371C48.6884 11.947 49.6066 12.9327 49.6066 14.624C49.6066 16.3412 48.7039 17.3165 47.1371 17.3165H45.726V11.947Z" fill="black"/>
<path d="M54.7459 18.4838C56.3956 18.4838 57.4073 17.3788 57.4073 15.5474C57.4073 13.7264 56.3904 12.6162 54.7459 12.6162C53.0961 12.6162 52.0792 13.7264 52.0792 15.5474C52.0792 17.3788 53.0909 18.4838 54.7459 18.4838ZM54.7459 17.4929C53.7757 17.4929 53.231 16.7822 53.231 15.5474C53.231 14.3231 53.7757 13.6071 54.7459 13.6071C55.7108 13.6071 56.2607 14.3231 56.2607 15.5474C56.2607 16.777 55.7108 17.4929 54.7459 17.4929Z" fill="black"/>
<path d="M66.0225 12.7252H64.907L63.9006 17.0364H63.8124L62.6503 12.7252H61.5815L60.4194 17.0364H60.3364L59.3248 12.7252H58.1938L59.7502 18.3749H60.8967L62.0588 14.2141H62.147L63.3143 18.3749H64.4713L66.0225 12.7252Z" fill="black"/>
<path d="M67.307 18.3749H68.4224V15.0701C68.4224 14.1882 68.9464 13.6382 69.7713 13.6382C70.5962 13.6382 70.9905 14.0896 70.9905 14.9975V18.3749H72.1059V14.7173C72.1059 13.3737 71.4107 12.6162 70.15 12.6162C69.2992 12.6162 68.7389 12.9949 68.4639 13.6227H68.3809V12.7252H67.307V18.3749Z" fill="black"/>
<path d="M73.8626 18.3749H74.978V10.5203H73.8626V18.3749Z" fill="black"/>
<path d="M79.173 18.4838C80.8228 18.4838 81.8344 17.3788 81.8344 15.5474C81.8344 13.7264 80.8176 12.6162 79.173 12.6162C77.5232 12.6162 76.5064 13.7264 76.5064 15.5474C76.5064 17.3788 77.518 18.4838 79.173 18.4838ZM79.173 17.4929C78.2028 17.4929 77.6581 16.7822 77.6581 15.5474C77.6581 14.3231 78.2028 13.6071 79.173 13.6071C80.1379 13.6071 80.6879 14.3231 80.6879 15.5474C80.6879 16.777 80.1379 17.4929 79.173 17.4929Z" fill="black"/>
<path d="M85.1578 17.5292C84.5508 17.5292 84.1099 17.2335 84.1099 16.7251C84.1099 16.2271 84.4626 15.9625 85.2408 15.9106L86.6208 15.8224V16.2945C86.6208 16.9949 85.9983 17.5292 85.1578 17.5292ZM84.8725 18.4683C85.6144 18.4683 86.2318 18.1466 86.569 17.5811H86.6572V18.3749H87.7311V14.515C87.7311 13.3218 86.9321 12.6162 85.5158 12.6162C84.2344 12.6162 83.3213 13.2388 83.2072 14.2089H84.2863C84.4108 13.8094 84.8414 13.5812 85.4639 13.5812C86.2266 13.5812 86.6208 13.9184 86.6208 14.515V15.0027L85.0904 15.0909C83.7467 15.1739 82.9893 15.7601 82.9893 16.777C82.9893 17.8094 83.783 18.4683 84.8725 18.4683Z" fill="black"/>
<path d="M91.5162 18.4683C92.2944 18.4683 92.9533 18.0999 93.2905 17.4825H93.3787V18.3749H94.4474V10.5203H93.332V13.6227H93.249C92.9429 13.0001 92.2892 12.6318 91.5162 12.6318C90.0895 12.6318 89.1713 13.7628 89.1713 15.5474C89.1713 17.3373 90.0792 18.4683 91.5162 18.4683ZM91.8327 13.6331C92.7665 13.6331 93.3528 14.3749 93.3528 15.5526C93.3528 16.7355 92.7717 17.467 91.8327 17.467C90.8885 17.467 90.323 16.7458 90.323 15.5474C90.323 14.3594 90.8937 13.6331 91.8327 13.6331Z" fill="black"/>
<path d="M101.681 18.4838C103.33 18.4838 104.342 17.3788 104.342 15.5474C104.342 13.7264 103.325 12.6162 101.681 12.6162C100.031 12.6162 99.0139 13.7264 99.0139 15.5474C99.0139 17.3788 100.026 18.4838 101.681 18.4838ZM101.681 17.4929C100.71 17.4929 100.166 16.7822 100.166 15.5474C100.166 14.3231 100.71 13.6071 101.681 13.6071C102.646 13.6071 103.195 14.3231 103.195 15.5474C103.195 16.777 102.646 17.4929 101.681 17.4929Z" fill="black"/>
<path d="M105.818 18.3749H106.934V15.0701C106.934 14.1882 107.458 13.6382 108.283 13.6382C109.108 13.6382 109.502 14.0896 109.502 14.9975V18.3749H110.617V14.7173C110.617 13.3737 109.922 12.6162 108.662 12.6162C107.811 12.6162 107.25 12.9949 106.975 13.6227H106.892V12.7252H105.818V18.3749Z" fill="black"/>
<path d="M115.755 11.3192V12.7511H114.857V13.6901H115.755V16.8807C115.755 17.9702 116.247 18.406 117.487 18.406C117.705 18.406 117.913 18.3801 118.094 18.3489V17.4203C117.939 17.4359 117.84 17.4462 117.669 17.4462C117.114 17.4462 116.87 17.1868 116.87 16.5954V13.6901H118.094V12.7511H116.87V11.3192H115.755Z" fill="black"/>
<path d="M119.592 18.3749H120.707V15.0753C120.707 14.2193 121.215 13.6434 122.128 13.6434C122.917 13.6434 123.337 14.1 123.337 15.0027V18.3749H124.453V14.7277C124.453 13.384 123.711 12.6214 122.507 12.6214C121.656 12.6214 121.06 13.0001 120.785 13.6331H120.697V10.5203H119.592V18.3749Z" fill="black"/>
<path d="M128.477 13.5656C129.301 13.5656 129.841 14.1415 129.867 15.0286H127.013C127.076 14.1467 127.652 13.5656 128.477 13.5656ZM129.862 16.8496C129.654 17.2906 129.192 17.5344 128.518 17.5344C127.626 17.5344 127.05 16.9067 127.013 15.9158V15.8535H131.003V15.4644C131.003 13.6901 130.054 12.6162 128.482 12.6162C126.889 12.6162 125.877 13.7628 125.877 15.5682C125.877 17.3736 126.868 18.4838 128.487 18.4838C129.779 18.4838 130.681 17.8613 130.936 16.8496H129.862Z" fill="black"/>
<path d="M30.9612 25.3761C30.9883 23.2748 32.1168 21.2866 33.9069 20.186C32.7776 18.5731 30.886 17.5505 28.918 17.4889C26.8189 17.2686 24.784 18.7449 23.7144 18.7449C22.624 18.7449 20.9772 17.5108 19.2037 17.5473C16.8922 17.622 14.7372 18.9362 13.6126 20.9571C11.1951 25.1426 12.9983 31.2939 15.3141 34.6772C16.4727 36.3339 17.8268 38.1845 19.5986 38.1188C21.3325 38.0469 21.98 37.0132 24.0729 37.0132C26.1463 37.0132 26.7539 38.1188 28.5616 38.0771C30.4221 38.0469 31.5943 36.4131 32.7123 34.7407C33.5447 33.5602 34.1853 32.2556 34.6103 30.875C32.4239 29.9503 30.9638 27.75 30.9612 25.3761Z" fill="black"/>
<path d="M27.5467 15.2639C28.5611 14.0461 29.0608 12.4809 28.9398 10.9006C27.39 11.0634 25.9584 11.8041 24.9303 12.9751C23.925 14.1193 23.4018 15.657 23.5007 17.1769C25.051 17.1928 26.5752 16.4722 27.5467 15.2639Z" fill="black"/>
<path d="M4.32122 49.4672L4.7039 48.5433L4.32122 49.4672ZM149.467 45.6788L150.391 46.0615L149.467 45.6788ZM145.679 49.4672L145.296 48.5433L145.679 49.4672ZM145.679 0.532843L145.296 1.45672L145.679 0.532843ZM149.467 4.32122L150.391 3.93853L149.467 4.32122ZM10.5 1H139.5V-1H10.5V1ZM149 10.5V39.5H151V10.5H149ZM139.5 49H10.5V51H139.5V49ZM1 39.5V10.5H-1V39.5H1ZM10.5 49C8.85552 49 7.67225 48.9995 6.73798 48.9357C5.8127 48.8726 5.20494 48.7508 4.7039 48.5433L3.93853 50.391C4.72389 50.7163 5.57473 50.861 6.60184 50.9311C7.61997 51.0005 8.88289 51 10.5 51V49ZM-1 39.5C-1 41.1171 -1.00054 42.38 -0.931075 43.3982C-0.860996 44.4253 -0.716341 45.2761 -0.391036 46.0615L1.45672 45.2961C1.24918 44.7951 1.12742 44.1873 1.06429 43.262C1.00054 42.3278 1 41.1445 1 39.5H-1ZM4.7039 48.5433C3.23373 47.9343 2.06569 46.7663 1.45672 45.2961L-0.391036 46.0615C0.420915 48.0217 1.97831 49.5791 3.93853 50.391L4.7039 48.5433ZM149 39.5C149 41.1445 148.999 42.3278 148.936 43.262C148.873 44.1873 148.751 44.7951 148.543 45.2961L150.391 46.0615C150.716 45.2761 150.861 44.4253 150.931 43.3982C151.001 42.38 151 41.1171 151 39.5H149ZM139.5 51C141.117 51 142.38 51.0005 143.398 50.9311C144.425 50.861 145.276 50.7163 146.061 50.391L145.296 48.5433C144.795 48.7508 144.187 48.8726 143.262 48.9357C142.328 48.9995 141.144 49 139.5 49V51ZM148.543 45.2961C147.934 46.7663 146.766 47.9343 145.296 48.5433L146.061 50.391C148.022 49.5791 149.579 48.0217 150.391 46.0615L148.543 45.2961ZM139.5 1C141.144 1 142.328 1.00054 143.262 1.06429C144.187 1.12742 144.795 1.24918 145.296 1.45672L146.061 -0.391036C145.276 -0.716341 144.425 -0.860996 143.398 -0.931075C142.38 -1.00054 141.117 -1 139.5 -1V1ZM151 10.5C151 8.88289 151.001 7.61997 150.931 6.60184C150.861 5.57473 150.716 4.72389 150.391 3.93853L148.543 4.7039C148.751 5.20494 148.873 5.8127 148.936 6.73798C148.999 7.67225 149 8.85552 149 10.5H151ZM145.296 1.45672C146.766 2.06569 147.934 3.23373 148.543 4.7039L150.391 3.93853C149.579 1.97831 148.022 0.420915 146.061 -0.391036L145.296 1.45672ZM10.5 -1C8.88289 -1 7.61997 -1.00054 6.60184 -0.931075C5.57473 -0.860996 4.72389 -0.716341 3.93853 -0.391036L4.7039 1.45672C5.20494 1.24918 5.8127 1.12742 6.73798 1.06429C7.67225 1.00054 8.85552 1 10.5 1V-1ZM1 10.5C1 8.85552 1.00054 7.67225 1.06429 6.73798C1.12742 5.8127 1.24918 5.20494 1.45672 4.7039L-0.391036 3.93853C-0.716341 4.72389 -0.860996 5.57473 -0.931075 6.60184C-1.00054 7.61997 -1 8.88289 -1 10.5H1ZM3.93853 -0.391036C1.97831 0.420915 0.420915 1.97831 -0.391036 3.93853L1.45672 4.7039C2.06569 3.23373 3.23373 2.06569 4.7039 1.45672L3.93853 -0.391036Z" fill="black"/>
</svg>
